<?xml version="1.0" encoding="UTF-8" standalone="no"?>
<!-- Created with Inkscape (http://www.inkscape.org/) -->

<svg
   width="1024.0px"
   height="1024.0px"
   viewBox="0 0 1024.0 1024.0"
   version="1.1"
   id="SVGRoot"
   sodipodi:docname="Icona.svg"
   inkscape:export-filename="C:\Users\Francesco\Documents\Programmazione\Sito casa\public\images\logo\maskable_icon\128.png"
   inkscape:export-xdpi="12"
   inkscape:export-ydpi="12"
   inkscape:version="1.1.1 (3bf5ae0d25, 2021-09-20)"
   xmlns:inkscape="http://www.inkscape.org/namespaces/inkscape"
   xmlns:sodipodi="http://sodipodi.sourceforge.net/DTD/sodipodi-0.dtd"
   xmlns="http://www.w3.org/2000/svg"
   xmlns:svg="http://www.w3.org/2000/svg">
  <sodipodi:namedview
     id="namedview14"
     pagecolor="#ffffff"
     bordercolor="#666666"
     borderopacity="1.0"
     inkscape:pageshadow="2"
     inkscape:pageopacity="0.0"
     inkscape:pagecheckerboard="0"
     inkscape:document-units="px"
     showgrid="false"
     inkscape:zoom="0.71339864"
     inkscape:cx="157.69584"
     inkscape:cy="491.31016"
     inkscape:window-width="2400"
     inkscape:window-height="1261"
     inkscape:window-x="-9"
     inkscape:window-y="-9"
     inkscape:window-maximized="1"
     inkscape:current-layer="g2489">
    <inkscape:grid
       type="xygrid"
       id="grid20" />
  </sodipodi:namedview>
  <defs
     id="defs9">
    <clipPath
       clipPathUnits="userSpaceOnUse"
       id="clipPath1452">
      <g
         inkscape:label="Clip"
         id="use1454"
         style="stroke-width:1.00012;stroke-miterlimit:4;stroke-dasharray:none">
        <path
           d="m -200.92108,40.851959 c -1.382,-4.1 -5.202,-6.880002 -9.527,-6.939002 -26.358,-0.354 -50.38,-7.19 -64.261,-18.289 -2.669,-2.135 -5.644,-3.73 -8.769,-4.791 V -110.41504 c 0,-1.706 -0.424,-3.311 -1.165,-4.724 -0.002,-0.004 10e-4,-0.008 -10e-4,-0.012 l -0.052,-0.1 c -0.007,-0.013 -0.013,-0.025 -0.02,-0.039 l -70.332,-134.141 c -1.761,-3.359 -5.24,-5.463 -9.032,-5.463 h -260.839 c -3.743,0 -7.186,2.051 -8.968,5.342 l -72.692,134.241 c -0.796,1.454 -1.251,3.121 -1.251,4.896 v 313.929 c 0,5.632 4.566,10.199 10.199,10.199 h 403.953 c 0.746,0 1.47,-0.085 2.169,-0.237 1.336,-0.167 2.647,-0.596 3.85,-1.293 0.936,-0.543 23.203,-13.571 45.635,-37.078 30.221,-31.666 46.194,-67.373 46.194,-103.259001 0,-10.553 -1.712,-20.981 -5.091,-30.994 z m -417.922,-275.347999 h 248.594 l 59.708,113.881 h -369.968 z m -68.589,134.28 h 383.554 V 11.326957 c -2.669,1.045 -5.218,2.467 -7.533,4.316 v 0 c -13.774,11.001 -37.594,17.828 -63.719,18.264 -4.313,0.072 -8.114,2.850002 -9.493,6.938002 -3.38,10.016 -5.093,20.446 -5.093,31.001 0,35.887001 15.973,71.593001 46.192,103.260001 6.705,7.026 13.392,13.109 19.502,18.21 h -106.034 V 41.933959 c 0,-5.632002 -4.566,-10.199002 -10.199,-10.199002 h -110.799 c -5.633,0 -10.199,4.567 -10.199,10.199002 V 193.31596 h -126.179 z m 146.577,293.531 V 52.132959 h 90.401 V 193.31496 Z m 248.083,-2.052 c -17.906,-12.008 -76.545,-56.173 -76.545,-119.417001 0,-6.022 0.707,-11.993 2.106,-17.827 27.857,-1.635 52.532,-9.661 68.529,-22.435002 3.267,-2.608 7.99,-2.619 11.234,-0.025 15.867,12.686002 41.302,20.891002 69.118,22.485002 1.396,5.827 2.101,11.79 2.101,17.804 0.001,63.247001 -58.648,107.414001 -76.543,119.415001 z"
           id="path2294"
           style="stroke-width:1.00012;stroke-miterlimit:4;stroke-dasharray:none" />
      </g>
    </clipPath>
    <clipPath
       clipPathUnits="userSpaceOnUse"
       id="clipPath1463">
      <g
         inkscape:label="Clip"
         id="use1465"
         style="stroke-width:1.00012;stroke-miterlimit:4;stroke-dasharray:none">
        <g
           id="g2290"
           clip-path="url(#clipPath1452)"
           style="stroke-width:1.00012;stroke-miterlimit:4;stroke-dasharray:none">
          <g
             inkscape:label="Clip"
             id="g2288"
             style="stroke-width:1.00012;stroke-miterlimit:4;stroke-dasharray:none">
            <path
               d="m -200.92108,40.851959 c -1.382,-4.1 -5.202,-6.880002 -9.527,-6.939002 -26.358,-0.354 -50.38,-7.19 -64.261,-18.289 -2.669,-2.135 -5.644,-3.73 -8.769,-4.791 V -110.41504 c 0,-1.706 -0.424,-3.311 -1.165,-4.724 -0.002,-0.004 10e-4,-0.008 -10e-4,-0.012 l -0.052,-0.1 c -0.007,-0.013 -0.013,-0.025 -0.02,-0.039 l -70.332,-134.141 c -1.761,-3.359 -5.24,-5.463 -9.032,-5.463 h -260.839 c -3.743,0 -7.186,2.051 -8.968,5.342 l -72.692,134.241 c -0.796,1.454 -1.251,3.121 -1.251,4.896 v 313.929 c 0,5.632 4.566,10.199 10.199,10.199 h 403.953 c 0.746,0 1.47,-0.085 2.169,-0.237 1.336,-0.167 2.647,-0.596 3.85,-1.293 0.936,-0.543 23.203,-13.571 45.635,-37.078 30.221,-31.666 46.194,-67.373 46.194,-103.259001 0,-10.553 -1.712,-20.981 -5.091,-30.994 z m -417.922,-275.347999 h 248.594 l 59.708,113.881 h -369.968 z m -68.589,134.28 h 383.554 V 11.326957 c -2.669,1.045 -5.218,2.467 -7.533,4.316 v 0 c -13.774,11.001 -37.594,17.828 -63.719,18.264 -4.313,0.072 -8.114,2.850002 -9.493,6.938002 -3.38,10.016 -5.093,20.446 -5.093,31.001 0,35.887001 15.973,71.593001 46.192,103.260001 6.705,7.026 13.392,13.109 19.502,18.21 h -106.034 V 41.933959 c 0,-5.632002 -4.566,-10.199002 -10.199,-10.199002 h -110.799 c -5.633,0 -10.199,4.567 -10.199,10.199002 V 193.31596 h -126.179 z m 146.577,293.531 V 52.132959 h 90.401 V 193.31496 Z m 248.083,-2.052 c -17.906,-12.008 -76.545,-56.173 -76.545,-119.417001 0,-6.022 0.707,-11.993 2.106,-17.827 27.857,-1.635 52.532,-9.661 68.529,-22.435002 3.267,-2.608 7.99,-2.619 11.234,-0.025 15.867,12.686002 41.302,20.891002 69.118,22.485002 1.396,5.827 2.101,11.79 2.101,17.804 0.001,63.247001 -58.648,107.414001 -76.543,119.415001 z"
               id="path2286"
               style="stroke-width:1.00012;stroke-miterlimit:4;stroke-dasharray:none" />
          </g>
        </g>
      </g>
    </clipPath>
  </defs>
  <g
     inkscape:label="Livello 1"
     inkscape:groupmode="layer"
     id="layer1">
    <g
       id="g116"
       transform="matrix(1.5788034,0,0,1.5788034,102.22956,178.03339)">
      <g
         id="g59" />
      <g
         id="g61" />
      <g
         id="g63" />
      <g
         id="g65" />
      <g
         id="g67" />
      <g
         id="g69" />
      <g
         id="g71" />
      <g
         id="g73" />
      <g
         id="g75" />
      <g
         id="g77" />
      <g
         id="g79" />
      <g
         id="g81" />
      <g
         id="g83" />
      <g
         id="g85" />
      <g
         id="g87" />
      <g
         id="g2489">
        <g
           id="g2522"
           transform="matrix(0.89310701,0,0,0.89310701,16.60439,29.219779)"
           inkscape:export-filename="C:\Users\Francesco\Documents\Programmazione\Sito casa\public\images\logo\1024.png"
           inkscape:export-xdpi="96"
           inkscape:export-ydpi="96">
          <g
             id="g2284"
             transform="translate(6.4974957,-13.247642)">
            <rect
               x="10.199"
               y="166.175"
               style="fill:#f8db02;fill-opacity:1;stroke:#000000;stroke-width:19.0017;stroke-linecap:round;stroke-linejoin:round;stroke-miterlimit:4;stroke-dasharray:none;stroke-opacity:1"
               width="403.95001"
               height="313.931"
               id="rect45" />
            <polygon
               style="fill:#f07057;stroke:#000000;stroke-width:19.0017;stroke-linejoin:round;stroke-miterlimit:4;stroke-dasharray:none;stroke-opacity:1"
               points="343.749,31.894 82.91,31.894 10.199,166.175 414.153,166.175 "
               id="polygon47" />
            <rect
               x="156.772"
               y="318.521"
               style="fill:#84b3d2;stroke:#000000;stroke-width:19.0017;stroke-linejoin:round;stroke-miterlimit:4;stroke-dasharray:none;stroke-opacity:1"
               width="110.804"
               height="161.586"
               id="rect49" />
          </g>
          <g
             id="g2279"
             transform="matrix(0.63339109,0,0,0.63339109,240.3779,-48.213981)">
            <polygon
               style="fill:#bddbff"
               points="33.391,100.174 33.391,144.696 0,144.696 0,300.522 33.391,300.522 33.391,345.043 66.781,345.043 66.781,378.435 100.174,378.435 100.173,445.217 66.783,445.217 66.783,512 267.13,512 267.13,478.609 345.042,478.609 345.042,445.217 411.825,445.217 411.825,411.826 445.216,411.826 445.216,378.435 478.608,378.435 478.608,333.913 512,333.913 512,144.696 478.608,144.696 478.608,100.174 445.217,100.174 445.217,66.783 411.825,66.783 411.825,33.391 345.042,33.391 345.042,0 166.957,0 166.957,33.391 100.173,33.391 100.173,66.783 66.781,66.783 66.781,100.174 "
               id="polygon2196" />
            <polygon
               points="100.173,378.435 100.173,345.043 66.781,345.043 66.781,300.522 33.391,300.522 33.391,345.043 66.781,345.043 66.781,378.435 "
               id="polygon2198" />
            <polygon
               points="166.955,33.391 100.173,33.391 100.173,66.783 66.781,66.783 66.781,100.174 33.391,100.174 33.391,144.696 0,144.696 0,300.522 33.391,300.522 33.391,144.696 66.783,144.696 66.783,100.174 100.173,100.174 100.173,66.783 166.955,66.783 "
               id="polygon2200" />
            <polygon
               points="345.043,0 166.955,0 166.955,33.391 345.042,33.391 345.042,66.783 411.825,66.783 411.825,100.174 445.216,100.174 445.216,66.783 411.826,66.783 411.826,33.391 345.043,33.391 "
               id="polygon2202" />
            <polygon
               points="512,333.913 512,144.696 478.608,144.696 478.608,100.174 445.217,100.174 445.217,144.696 478.608,144.696 478.608,333.913 "
               id="polygon2204" />
            <rect
               x="445.21701"
               y="333.91299"
               width="33.389999"
               height="44.521999"
               id="rect2206" />
            <polygon
               points="345.042,445.217 267.13,445.217 267.13,478.609 100.173,478.609 100.173,445.217 66.781,445.217 66.781,512 267.13,512 267.13,478.609 345.042,478.609 345.042,445.217 411.825,445.217 411.825,411.826 345.042,411.826 "
               id="polygon2208" />
            <polygon
               points="166.955,378.435 100.173,378.435 100.173,445.217 133.564,445.217 133.564,411.826 166.955,411.826 "
               id="polygon2210" />
            <rect
               x="411.82599"
               y="378.435"
               width="33.390999"
               height="33.390999"
               id="rect2212" />
            <rect
               x="233.739"
               y="100.174"
               width="44.521999"
               height="44.521999"
               id="rect2214" />
            <rect
               x="233.739"
               y="178.08701"
               width="44.521999"
               height="166.957"
               id="rect2216" />
            <g
               id="g2218" />
            <g
               id="g2220" />
            <g
               id="g2222" />
            <g
               id="g2224" />
            <g
               id="g2226" />
            <g
               id="g2228" />
            <g
               id="g2230" />
            <g
               id="g2232" />
            <g
               id="g2234" />
            <g
               id="g2236" />
            <g
               id="g2238" />
            <g
               id="g2240" />
            <g
               id="g2242" />
            <g
               id="g2244" />
            <g
               id="g2246" />
          </g>
        </g>
        <g
           id="g7923"
           transform="matrix(1.1256292,0,0,1.1256292,-910.20861,-68.500878)"
           inkscape:export-filename="C:\Users\Francesco\Documents\Programmazione\Sito casa\public\images\logo\1024.png"
           inkscape:export-xdpi="96"
           inkscape:export-ydpi="96">
          <g
             id="g7867"
             transform="translate(6.4974957,-13.247642)">
            <rect
               x="10.199"
               y="166.175"
               style="fill:#f8db02;fill-opacity:1;stroke:#000000;stroke-width:19.0017;stroke-linecap:round;stroke-linejoin:round;stroke-miterlimit:4;stroke-dasharray:none;stroke-opacity:1"
               width="403.95001"
               height="313.931"
               id="rect7861" />
            <polygon
               style="fill:#f07057;stroke:#000000;stroke-width:19.0017;stroke-linejoin:round;stroke-miterlimit:4;stroke-dasharray:none;stroke-opacity:1"
               points="343.749,31.894 82.91,31.894 10.199,166.175 414.153,166.175 "
               id="polygon7863" />
            <rect
               x="156.772"
               y="318.521"
               style="fill:#84b3d2;stroke:#000000;stroke-width:19.0017;stroke-linejoin:round;stroke-miterlimit:4;stroke-dasharray:none;stroke-opacity:1"
               width="110.804"
               height="161.586"
               id="rect7865" />
          </g>
          <g
             id="g7921"
             transform="matrix(0.63339109,0,0,0.63339109,240.3779,-48.213981)">
            <polygon
               style="fill:#bddbff"
               points="33.391,100.174 33.391,144.696 0,144.696 0,300.522 33.391,300.522 33.391,345.043 66.781,345.043 66.781,378.435 100.174,378.435 100.173,445.217 66.783,445.217 66.783,512 267.13,512 267.13,478.609 345.042,478.609 345.042,445.217 411.825,445.217 411.825,411.826 445.216,411.826 445.216,378.435 478.608,378.435 478.608,333.913 512,333.913 512,144.696 478.608,144.696 478.608,100.174 445.217,100.174 445.217,66.783 411.825,66.783 411.825,33.391 345.042,33.391 345.042,0 166.957,0 166.957,33.391 100.173,33.391 100.173,66.783 66.781,66.783 66.781,100.174 "
               id="polygon7869" />
            <polygon
               points="100.173,378.435 100.173,345.043 66.781,345.043 66.781,300.522 33.391,300.522 33.391,345.043 66.781,345.043 66.781,378.435 "
               id="polygon7871" />
            <polygon
               points="166.955,33.391 100.173,33.391 100.173,66.783 66.781,66.783 66.781,100.174 33.391,100.174 33.391,144.696 0,144.696 0,300.522 33.391,300.522 33.391,144.696 66.783,144.696 66.783,100.174 100.173,100.174 100.173,66.783 166.955,66.783 "
               id="polygon7873" />
            <polygon
               points="345.043,0 166.955,0 166.955,33.391 345.042,33.391 345.042,66.783 411.825,66.783 411.825,100.174 445.216,100.174 445.216,66.783 411.826,66.783 411.826,33.391 345.043,33.391 "
               id="polygon7875" />
            <polygon
               points="512,333.913 512,144.696 478.608,144.696 478.608,100.174 445.217,100.174 445.217,144.696 478.608,144.696 478.608,333.913 "
               id="polygon7877" />
            <rect
               x="445.21701"
               y="333.91299"
               width="33.389999"
               height="44.521999"
               id="rect7879" />
            <polygon
               points="345.042,445.217 267.13,445.217 267.13,478.609 100.173,478.609 100.173,445.217 66.781,445.217 66.781,512 267.13,512 267.13,478.609 345.042,478.609 345.042,445.217 411.825,445.217 411.825,411.826 345.042,411.826 "
               id="polygon7881" />
            <polygon
               points="166.955,378.435 100.173,378.435 100.173,445.217 133.564,445.217 133.564,411.826 166.955,411.826 "
               id="polygon7883" />
            <rect
               x="411.82599"
               y="378.435"
               width="33.390999"
               height="33.390999"
               id="rect7885" />
            <rect
               x="233.739"
               y="100.174"
               width="44.521999"
               height="44.521999"
               id="rect7887" />
            <rect
               x="233.739"
               y="178.08701"
               width="44.521999"
               height="166.957"
               id="rect7889" />
            <g
               id="g7891" />
            <g
               id="g7893" />
            <g
               id="g7895" />
            <g
               id="g7897" />
            <g
               id="g7899" />
            <g
               id="g7901" />
            <g
               id="g7903" />
            <g
               id="g7905" />
            <g
               id="g7907" />
            <g
               id="g7909" />
            <g
               id="g7911" />
            <g
               id="g7913" />
            <g
               id="g7915" />
            <g
               id="g7917" />
            <g
               id="g7919" />
          </g>
        </g>
      </g>
    </g>
  </g>
</svg>
