<?xml version="1.0" encoding="UTF-8" standalone="no"?>
<!-- Created with Inkscape (http://www.inkscape.org/) -->

<svg
   width="1024.0px"
   height="1024.0px"
   viewBox="0 0 1024.0 1024.0"
   version="1.1"
   id="SVGRoot"
   sodipodi:docname="heating.svg"
   inkscape:export-filename="C:\Users\Francesco\Documents\Programmazione\Sito casa\public\images\logo\maskable_icon\128.png"
   inkscape:export-xdpi="12"
   inkscape:export-ydpi="12"
   inkscape:version="1.1.1 (3bf5ae0d25, 2021-09-20)"
   xmlns:inkscape="http://www.inkscape.org/namespaces/inkscape"
   xmlns:sodipodi="http://sodipodi.sourceforge.net/DTD/sodipodi-0.dtd"
   xmlns="http://www.w3.org/2000/svg"
   xmlns:svg="http://www.w3.org/2000/svg">
  <sodipodi:namedview
     id="namedview14"
     pagecolor="#ffffff"
     bordercolor="#666666"
     borderopacity="1.0"
     inkscape:pageshadow="2"
     inkscape:pageopacity="0.0"
     inkscape:pagecheckerboard="0"
     inkscape:document-units="px"
     showgrid="false"
     inkscape:zoom="0.25198788"
     inkscape:cx="406.7656"
     inkscape:cy="890.91587"
     inkscape:window-width="2400"
     inkscape:window-height="1261"
     inkscape:window-x="-9"
     inkscape:window-y="-9"
     inkscape:window-maximized="1"
     inkscape:current-layer="g20293"
     inkscape:object-paths="false"
     inkscape:object-nodes="true"
     inkscape:snap-smooth-nodes="true">
    <inkscape:grid
       type="xygrid"
       id="grid20" />
  </sodipodi:namedview>
  <defs
     id="defs9"><clipPath
   clipPathUnits="userSpaceOnUse"
   id="clipPath1452">
  <g
     inkscape:label="Clip"
     id="use1454"
     style="stroke-width:1.00012;stroke-miterlimit:4;stroke-dasharray:none">
    <path
       d="m -200.92108,40.851959 c -1.382,-4.1 -5.202,-6.880002 -9.527,-6.939002 -26.358,-0.354 -50.38,-7.19 -64.261,-18.289 -2.669,-2.135 -5.644,-3.73 -8.769,-4.791 V -110.41504 c 0,-1.706 -0.424,-3.311 -1.165,-4.724 -0.002,-0.004 10e-4,-0.008 -10e-4,-0.012 l -0.052,-0.1 c -0.007,-0.013 -0.013,-0.025 -0.02,-0.039 l -70.332,-134.141 c -1.761,-3.359 -5.24,-5.463 -9.032,-5.463 h -260.839 c -3.743,0 -7.186,2.051 -8.968,5.342 l -72.692,134.241 c -0.796,1.454 -1.251,3.121 -1.251,4.896 v 313.929 c 0,5.632 4.566,10.199 10.199,10.199 h 403.953 c 0.746,0 1.47,-0.085 2.169,-0.237 1.336,-0.167 2.647,-0.596 3.85,-1.293 0.936,-0.543 23.203,-13.571 45.635,-37.078 30.221,-31.666 46.194,-67.373 46.194,-103.259001 0,-10.553 -1.712,-20.981 -5.091,-30.994 z m -417.922,-275.347999 h 248.594 l 59.708,113.881 h -369.968 z m -68.589,134.28 h 383.554 V 11.326957 c -2.669,1.045 -5.218,2.467 -7.533,4.316 v 0 c -13.774,11.001 -37.594,17.828 -63.719,18.264 -4.313,0.072 -8.114,2.850002 -9.493,6.938002 -3.38,10.016 -5.093,20.446 -5.093,31.001 0,35.887001 15.973,71.593001 46.192,103.260001 6.705,7.026 13.392,13.109 19.502,18.21 h -106.034 V 41.933959 c 0,-5.632002 -4.566,-10.199002 -10.199,-10.199002 h -110.799 c -5.633,0 -10.199,4.567 -10.199,10.199002 V 193.31596 h -126.179 z m 146.577,293.531 V 52.132959 h 90.401 V 193.31496 Z m 248.083,-2.052 c -17.906,-12.008 -76.545,-56.173 -76.545,-119.417001 0,-6.022 0.707,-11.993 2.106,-17.827 27.857,-1.635 52.532,-9.661 68.529,-22.435002 3.267,-2.608 7.99,-2.619 11.234,-0.025 15.867,12.686002 41.302,20.891002 69.118,22.485002 1.396,5.827 2.101,11.79 2.101,17.804 0.001,63.247001 -58.648,107.414001 -76.543,119.415001 z"
       id="path2294"
       style="stroke-width:1.00012;stroke-miterlimit:4;stroke-dasharray:none" />
  </g>
</clipPath>
<clipPath
   clipPathUnits="userSpaceOnUse"
   id="clipPath1463">
  <g
     inkscape:label="Clip"
     id="use1465"
     style="stroke-width:1.00012;stroke-miterlimit:4;stroke-dasharray:none">
    <g
       id="g2290"
       clip-path="url(#clipPath1452)"
       style="stroke-width:1.00012;stroke-miterlimit:4;stroke-dasharray:none">
      <g
         inkscape:label="Clip"
         id="g2288"
         style="stroke-width:1.00012;stroke-miterlimit:4;stroke-dasharray:none">
        <path
           d="m -200.92108,40.851959 c -1.382,-4.1 -5.202,-6.880002 -9.527,-6.939002 -26.358,-0.354 -50.38,-7.19 -64.261,-18.289 -2.669,-2.135 -5.644,-3.73 -8.769,-4.791 V -110.41504 c 0,-1.706 -0.424,-3.311 -1.165,-4.724 -0.002,-0.004 10e-4,-0.008 -10e-4,-0.012 l -0.052,-0.1 c -0.007,-0.013 -0.013,-0.025 -0.02,-0.039 l -70.332,-134.141 c -1.761,-3.359 -5.24,-5.463 -9.032,-5.463 h -260.839 c -3.743,0 -7.186,2.051 -8.968,5.342 l -72.692,134.241 c -0.796,1.454 -1.251,3.121 -1.251,4.896 v 313.929 c 0,5.632 4.566,10.199 10.199,10.199 h 403.953 c 0.746,0 1.47,-0.085 2.169,-0.237 1.336,-0.167 2.647,-0.596 3.85,-1.293 0.936,-0.543 23.203,-13.571 45.635,-37.078 30.221,-31.666 46.194,-67.373 46.194,-103.259001 0,-10.553 -1.712,-20.981 -5.091,-30.994 z m -417.922,-275.347999 h 248.594 l 59.708,113.881 h -369.968 z m -68.589,134.28 h 383.554 V 11.326957 c -2.669,1.045 -5.218,2.467 -7.533,4.316 v 0 c -13.774,11.001 -37.594,17.828 -63.719,18.264 -4.313,0.072 -8.114,2.850002 -9.493,6.938002 -3.38,10.016 -5.093,20.446 -5.093,31.001 0,35.887001 15.973,71.593001 46.192,103.260001 6.705,7.026 13.392,13.109 19.502,18.21 h -106.034 V 41.933959 c 0,-5.632002 -4.566,-10.199002 -10.199,-10.199002 h -110.799 c -5.633,0 -10.199,4.567 -10.199,10.199002 V 193.31596 h -126.179 z m 146.577,293.531 V 52.132959 h 90.401 V 193.31496 Z m 248.083,-2.052 c -17.906,-12.008 -76.545,-56.173 -76.545,-119.417001 0,-6.022 0.707,-11.993 2.106,-17.827 27.857,-1.635 52.532,-9.661 68.529,-22.435002 3.267,-2.608 7.99,-2.619 11.234,-0.025 15.867,12.686002 41.302,20.891002 69.118,22.485002 1.396,5.827 2.101,11.79 2.101,17.804 0.001,63.247001 -58.648,107.414001 -76.543,119.415001 z"
           id="path2286"
           style="stroke-width:1.00012;stroke-miterlimit:4;stroke-dasharray:none" />
      </g>
    </g>
  </g>
</clipPath>

	
	
	
	
	

			
			
		
				
				
				
			
	
	
	
	
	
	
	
	
	
	

	
	
</defs>
  <g
     inkscape:label="Livello 1"
     inkscape:groupmode="layer"
     id="layer1"
     style="display:inline">
    <g
       id="g59"
       transform="matrix(1.5788034,0,0,1.5788034,102.22956,178.03339)" />
    <g
       id="g61"
       transform="matrix(1.5788034,0,0,1.5788034,102.22956,178.03339)" />
    <g
       id="g63"
       transform="matrix(1.5788034,0,0,1.5788034,102.22956,178.03339)" />
    <g
       id="g65"
       transform="matrix(1.5788034,0,0,1.5788034,102.22956,178.03339)" />
    <g
       id="g67"
       transform="matrix(1.5788034,0,0,1.5788034,102.22956,178.03339)" />
    <g
       id="g69"
       transform="matrix(1.5788034,0,0,1.5788034,102.22956,178.03339)" />
    <g
       id="g71"
       transform="matrix(1.5788034,0,0,1.5788034,102.22956,178.03339)" />
    <g
       id="g73"
       transform="matrix(1.5788034,0,0,1.5788034,102.22956,178.03339)" />
    <g
       id="g75"
       transform="matrix(1.5788034,0,0,1.5788034,102.22956,178.03339)" />
    <g
       id="g77"
       transform="matrix(1.5788034,0,0,1.5788034,102.22956,178.03339)" />
    <g
       id="g79"
       transform="matrix(1.5788034,0,0,1.5788034,102.22956,178.03339)" />
    <g
       id="g81"
       transform="matrix(1.5788034,0,0,1.5788034,102.22956,178.03339)" />
    <g
       id="g83"
       transform="matrix(1.5788034,0,0,1.5788034,102.22956,178.03339)" />
    <g
       id="g85"
       transform="matrix(1.5788034,0,0,1.5788034,102.22956,178.03339)" />
    <g
       id="g87"
       transform="matrix(1.5788034,0,0,1.5788034,102.22956,178.03339)" />
    <g
       id="g20293"
       transform="matrix(1.4249042,0,0,1.4249042,311.73004,144.37989)">
      <g
         id="g20240">
</g>
      <g
         id="g20242">
</g>
      <g
         id="g20244">
</g>
      <g
         id="g20246">
</g>
      <g
         id="g20248">
</g>
      <g
         id="g20250">
</g>
      <g
         id="g20252">
</g>
      <g
         id="g20254">
</g>
      <g
         id="g20256">
</g>
      <g
         id="g20258">
</g>
      <g
         id="g20260">
</g>
      <g
         id="g20262">
</g>
      <g
         id="g20264">
</g>
      <g
         id="g20266">
</g>
      <g
         id="g20268">
</g>
      <path
         id="polygon20741"
         style="fill:#aaeeff;stroke:#000000;stroke-width:18.8741;stroke-linejoin:round;stroke-miterlimit:4;stroke-dasharray:none;stroke-opacity:1"
         d="m 1191.4737,518.40374 v 67.38269 l -33.426,-33.42593 -38.032,38.03386 71.458,71.45796 v 142.78134 l -123.6511,-71.38975 -26.1565,-97.61625 -51.95347,13.92148 12.23497,45.66091 -58.35483,-33.69135 -26.89373,46.5825 58.35484,33.6895 -45.66091,12.23498 13.91964,51.95534 97.61629,-26.15646 123.651,71.38976 -123.651,71.38975 -97.61629,-26.15462 -13.91964,51.95351 45.66091,12.23497 -58.35484,33.69135 26.89373,46.58252 58.35483,-33.6914 -12.23497,45.6591 51.95347,13.9215 26.1565,-97.61628 123.6511,-71.38791 v 142.77949 l -71.458,71.4598 38.032,38.032 33.426,-33.4259 v 67.3827 h 26.8937 26.8937 v -67.3827 l 33.4278,33.4259 38.032,-38.032 -71.4598,-71.4598 V 897.79681 l 123.6511,71.38791 26.1564,97.61628 51.9535,-13.9215 -12.2331,-45.6591 58.3548,33.6914 26.8938,-46.58252 -58.3549,-33.69135 45.6609,-12.23497 -13.9214,-51.95351 -97.6163,26.15462 -123.6511,-71.38975 123.6511,-71.38976 97.6163,26.15646 13.9214,-51.95534 -45.6609,-12.23498 58.3549,-33.6895 -26.8938,-46.5825 -58.3548,33.69135 12.2331,-45.66091 -51.9535,-13.92148 -26.1564,97.61625 -123.6511,71.38975 V 661.85232 l 71.4598,-71.45796 -38.032,-38.03386 -33.4278,33.42593 v -67.38269 h -26.8937 z" />
      <g
         id="g20232"
         transform="matrix(1.1780668,0,0,1.1780668,280.89874,821.41223)"
         style="display:inline">
        <rect
           x="10.199"
           y="166.175"
           style="fill:#f8db02;fill-opacity:1;stroke:#000000;stroke-width:19.0017;stroke-linecap:round;stroke-linejoin:round;stroke-miterlimit:4;stroke-dasharray:none;stroke-opacity:1"
           width="403.95001"
           height="313.931"
           id="rect45" />
        <polygon
           style="fill:#f07057;stroke:#000000;stroke-width:19.0017;stroke-linejoin:round;stroke-miterlimit:4;stroke-dasharray:none;stroke-opacity:1"
           points="343.749,31.894 82.91,31.894 10.199,166.175 414.153,166.175 "
           id="polygon47" />
        <rect
           x="156.772"
           y="318.521"
           style="fill:#84b3d2;stroke:#000000;stroke-width:19.0017;stroke-linejoin:round;stroke-miterlimit:4;stroke-dasharray:none;stroke-opacity:1"
           width="110.804"
           height="161.586"
           id="rect49" />
      </g>
      <g
         id="g22551"
         transform="matrix(1.2170342,0,0,1.2170342,-810.44619,-1029.9979)">
        <path
           style="fill:#d40000;stroke-width:1.05265"
           d="m 619.37999,1157.3228 c 0,89.484 72.54153,162.0255 162.02553,162.0255 v 0 c 89.48399,0 162.02552,-72.5415 162.02552,-162.0255 0,-90.0146 -45.00726,-162.02557 -14.80978,-225.03533 0,0 -48.19997,9.00125 -75.20475,81.01223 0,0 -90.01348,-90.01347 -52.40637,-216.03402 0,0 -91.61667,36.00602 -82.03541,153.02428 8.21596,100.34424 -9.58231,117.01824 -9.58231,117.01824 0,-81.01222 -63.33818,-117.01824 -63.33818,-117.01824 18.33302,99.01474 -26.67425,126.01844 -26.67425,207.03284 z"
           id="path20753" />
        <path
           style="fill:#ff7f2a;stroke-width:1.05265"
           d="m 898.36062,1195.6941 c 0,67.3951 -52.03794,124.9279 -119.42042,123.6289 -63.41291,-1.2221 -110.59391,-49.4705 -105.5517,-112.4939 2.25058,-28.1291 23.62892,-73.6995 58.50861,-119.831 l 23.25417,14.0645 c -0.74949,-57.0096 26.25424,-132.77016 26.25424,-132.77016 17.73932,79.82486 116.9551,100.51586 116.9551,227.40166 z"
           id="path20755" />
        <path
           style="fill:#ffffff;stroke-width:1.05265"
           d="m 736.39825,1139.3182 c -9.00124,54.0085 -27.00373,73.672 -27.00373,108.017 0,36.006 32.24069,72.011 72.011,72.011 v 0 c 40.05769,0 72.12152,-32.7291 72.00994,-72.7868 -0.30001,-107.5855 -63.0087,-179.2522 -63.0087,-179.2522 9.00124,54.0085 -18.00248,99.0157 -18.00248,99.0157 -11.24761,-16.8708 -36.00603,-27.0047 -36.00603,-27.0047 z"
           id="path20757" />
        <path
           d="m 937.7425,1055.4669 c -9.85389,-45.2715 -18.36354,-84.36913 -1.51266,-119.53303 1.37371,-2.86533 1.02107,-6.26014 -0.9137,-8.78335 -1.93478,-2.52321 -5.12116,-3.74323 -8.24544,-3.15901 -2.02952,0.37895 -47.29047,9.54231 -76.25635,73.5005 -7.84648,-9.74758 -19.76673,-26.40898 -30.05326,-48.5126 -22.7289,-48.84314 -26.6532,-99.07367 -11.66446,-149.30105 0.92423,-3.0927 10e-4,-6.44224 -2.37689,-8.6265 -2.37689,-2.18426 -5.79065,-2.82216 -8.79703,-1.64003 -1.0095,0.39685 -24.97737,9.9981 -47.7389,34.77547 -20.9436,22.79837 -44.81884,63.30239 -39.62084,126.7911 2.76216,33.7365 2.46321,57.3696 1.16003,73.4868 -6.66015,-22.4352 -17.68354,-39.56925 -27.49953,-51.42634 -16.62877,-20.08884 -33.29755,-29.68694 -33.99967,-30.08484 -2.85374,-1.62109 -6.38855,-1.44214 -9.06335,0.46106 -2.67374,1.90214 -4.00219,5.18326 -3.40428,8.41175 10.26127,55.42957 0.0926,86.91347 -10.67391,120.24467 -7.93596,24.5689 -16.14244,49.9758 -16.14244,85.2492 0.002,93.9956 76.47214,170.4646 170.4657,170.4646 93.99356,0 170.4636,-76.469 170.4636,-170.4636 0,-36.9555 -7.50437,-71.4341 -14.12662,-101.8548 z m -93.46197,241.9725 c 10.9855,-13.7561 17.57511,-31.1691 17.57511,-50.1042 0,-57.4444 -17.61722,-104.737 -32.39648,-134.2944 -16.05191,-32.1049 -32.02909,-50.5222 -32.70069,-51.2895 -3.06953,-3.5085 -8.40017,-3.8643 -11.90762,-0.7948 -3.50744,3.0695 -3.86323,8.4002 -0.79475,11.9076 0.60843,0.6969 60.92129,70.8247 60.92129,174.4711 0,35.0534 -28.5185,63.5719 -63.57187,63.5719 -36.38498,0 -63.57187,-33.5629 -63.57187,-63.5719 0,-14.8751 3.23481,-24.9669 6.40014,-32.8765 1.73161,-4.3275 -0.3737,-9.2391 -4.70116,-10.9708 -4.32851,-1.7316 -9.23914,0.3737 -10.9697,4.7001 -3.54113,8.855 -7.60753,21.3036 -7.60753,39.1472 0,17.913 7.0591,36.1765 19.50252,50.9484 -54.45273,-23.6331 -92.6388,-77.9174 -92.6388,-140.9619 0,-32.6144 7.44437,-55.6622 15.32559,-80.0627 9.60651,-29.7438 19.50146,-60.375 14.28661,-107.7939 17.50248,15.77086 43.52408,47.6589 43.52408,97.8431 0,3.3632 1.99688,6.4054 5.08326,7.7423 3.08428,1.3379 6.66962,0.7147 9.12546,-1.5843 3.46849,-3.2495 20.35938,-24.4942 12.22236,-123.86468 -3.74955,-45.78202 7.9328,-83.94808 34.71758,-113.43713 9.05177,-9.96547 18.41091,-17.22878 25.99002,-22.21205 -12.31289,59.30757 2.11689,109.38231 17.36458,142.14932 18.22249,39.15872 41.02718,62.20444 41.98931,63.16664 2.02741,2.0284 4.94852,2.8874 7.75384,2.2811 2.80427,-0.6074 5.10748,-2.598 6.11487,-5.2844 15.47296,-41.26399 37.76711,-60.36124 52.76743,-68.9751 -9.52231,35.09442 -1.38108,72.5099 7.16541,111.7697 6.75699,31.0333 13.74135,63.1245 13.74135,98.2642 10e-4,62.2971 -37.28395,116.0477 -90.71034,140.1156 z"
           id="path20759"
           style="stroke-width:1.05265" />
        <path
           d="m 772.0569,1151.8605 c -17.40458,-20.3151 -33.63755,-20.9815 -35.65759,-20.9815 -4.6601,0 -8.43913,3.778 -8.43913,8.4392 0,12.5002 -1.47161,23.1626 -4.63168,33.5512 -1.35581,4.459 1.16003,9.1739 5.61907,10.5297 0.81896,0.2484 1.6453,0.3684 2.459,0.3684 3.61692,0 6.96225,-2.3453 8.06964,-5.9864 2.61901,-8.6128 4.2622,-17.6046 4.96537,-27.2511 0.16737,0.087 0.3379,0.1779 0.50949,0.2716 4.98431,2.7116 12.57605,8.4159 20.43306,20.2014 1.40213,2.1043 3.67376,3.4675 6.1896,3.717 2.52111,0.2515 5.01169,-0.6422 6.79804,-2.4306 1.25582,-1.2558 12.44553,-13.0519 18.52144,-40.1261 1.02003,-4.5475 -1.83898,-9.0623 -6.38645,-10.0813 -4.5443,-1.0211 -9.06124,1.839 -10.08126,6.3854 -2.36216,10.5244 -5.60223,18.2088 -8.3686,23.3931 z"
           id="path20761"
           style="stroke-width:1.05265" />
      </g>
      <g
         id="g20763"
         transform="matrix(1.0526538,0,0,1.0526538,35.680756,-46.691689)">
</g>
      <g
         id="g20765"
         transform="matrix(1.0526538,0,0,1.0526538,35.680756,-46.691689)">
</g>
      <g
         id="g20767"
         transform="matrix(1.0526538,0,0,1.0526538,35.680756,-46.691689)">
</g>
      <g
         id="g20769"
         transform="matrix(1.0526538,0,0,1.0526538,35.680756,-46.691689)">
</g>
      <g
         id="g20771"
         transform="matrix(1.0526538,0,0,1.0526538,35.680756,-46.691689)">
</g>
      <g
         id="g20773"
         transform="matrix(1.0526538,0,0,1.0526538,35.680756,-46.691689)">
</g>
      <g
         id="g20775"
         transform="matrix(1.0526538,0,0,1.0526538,35.680756,-46.691689)">
</g>
      <g
         id="g20777"
         transform="matrix(1.0526538,0,0,1.0526538,35.680756,-46.691689)">
</g>
      <g
         id="g20779"
         transform="matrix(1.0526538,0,0,1.0526538,35.680756,-46.691689)">
</g>
      <g
         id="g20781"
         transform="matrix(1.0526538,0,0,1.0526538,35.680756,-46.691689)">
</g>
      <g
         id="g20783"
         transform="matrix(1.0526538,0,0,1.0526538,35.680756,-46.691689)">
</g>
      <g
         id="g20785"
         transform="matrix(1.0526538,0,0,1.0526538,35.680756,-46.691689)">
</g>
      <g
         id="g20787"
         transform="matrix(1.0526538,0,0,1.0526538,35.680756,-46.691689)">
</g>
      <g
         id="g20789"
         transform="matrix(1.0526538,0,0,1.0526538,35.680756,-46.691689)">
</g>
      <g
         id="g20791"
         transform="matrix(1.0526538,0,0,1.0526538,35.680756,-46.691689)">
</g>
    </g>
    <g
       id="g7923"
       transform="matrix(1.7771472,0,0,1.7771472,-1334.8109,69.883971)"
       inkscape:export-filename="C:\Users\Francesco\Documents\Programmazione\Sito casa\public\images\logo\1024.png"
       inkscape:export-xdpi="96"
       inkscape:export-ydpi="96">
      <g
         id="g7867"
         transform="translate(6.4974957,-13.247642)">
        <rect
           x="10.199"
           y="166.175"
           style="fill:#f8db02;fill-opacity:1;stroke:#000000;stroke-width:19.0017;stroke-linecap:round;stroke-linejoin:round;stroke-miterlimit:4;stroke-dasharray:none;stroke-opacity:1"
           width="403.95001"
           height="313.931"
           id="rect7861" />
        <polygon
           style="fill:#f07057;stroke:#000000;stroke-width:19.0017;stroke-linejoin:round;stroke-miterlimit:4;stroke-dasharray:none;stroke-opacity:1"
           points="10.199,166.175 414.153,166.175 343.749,31.894 82.91,31.894 "
           id="polygon7863" />
        <rect
           x="156.772"
           y="318.521"
           style="fill:#84b3d2;stroke:#000000;stroke-width:19.0017;stroke-linejoin:round;stroke-miterlimit:4;stroke-dasharray:none;stroke-opacity:1"
           width="110.804"
           height="161.586"
           id="rect7865" />
      </g>
      <g
         id="g7921"
         transform="matrix(0.63339109,0,0,0.63339109,240.3779,-48.213981)">
        <polygon
           style="fill:#bddbff"
           points="66.781,345.043 66.781,378.435 100.174,378.435 100.173,445.217 66.783,445.217 66.783,512 267.13,512 267.13,478.609 345.042,478.609 345.042,445.217 411.825,445.217 411.825,411.826 445.216,411.826 445.216,378.435 478.608,378.435 478.608,333.913 512,333.913 512,144.696 478.608,144.696 478.608,100.174 445.217,100.174 445.217,66.783 411.825,66.783 411.825,33.391 345.042,33.391 345.042,0 166.957,0 166.957,33.391 100.173,33.391 100.173,66.783 66.781,66.783 66.781,100.174 33.391,100.174 33.391,144.696 0,144.696 0,300.522 33.391,300.522 33.391,345.043 "
           id="polygon7869" />
        <polygon
           points="66.781,345.043 66.781,378.435 100.173,378.435 100.173,345.043 66.781,345.043 66.781,300.522 33.391,300.522 33.391,345.043 "
           id="polygon7871" />
        <polygon
           points="33.391,144.696 0,144.696 0,300.522 33.391,300.522 33.391,144.696 66.783,144.696 66.783,100.174 100.173,100.174 100.173,66.783 166.955,66.783 166.955,33.391 100.173,33.391 100.173,66.783 66.781,66.783 66.781,100.174 33.391,100.174 "
           id="polygon7873" />
        <polygon
           points="411.825,100.174 445.216,100.174 445.216,66.783 411.826,66.783 411.826,33.391 345.043,33.391 345.043,0 166.955,0 166.955,33.391 345.042,33.391 345.042,66.783 411.825,66.783 "
           id="polygon7875" />
        <polygon
           points="478.608,144.696 478.608,333.913 512,333.913 512,144.696 478.608,144.696 478.608,100.174 445.217,100.174 445.217,144.696 "
           id="polygon7877" />
        <rect
           x="445.21701"
           y="333.91299"
           width="33.389999"
           height="44.521999"
           id="rect7879" />
        <polygon
           points="66.781,512 267.13,512 267.13,478.609 345.042,478.609 345.042,445.217 411.825,445.217 411.825,411.826 345.042,411.826 345.042,445.217 267.13,445.217 267.13,478.609 100.173,478.609 100.173,445.217 66.781,445.217 "
           id="polygon7881" />
        <polygon
           points="166.955,378.435 100.173,378.435 100.173,445.217 133.564,445.217 133.564,411.826 166.955,411.826 "
           id="polygon7883" />
        <rect
           x="411.82599"
           y="378.435"
           width="33.390999"
           height="33.390999"
           id="rect7885" />
        <rect
           x="233.739"
           y="100.174"
           width="44.521999"
           height="44.521999"
           id="rect7887" />
        <rect
           x="233.739"
           y="178.08701"
           width="44.521999"
           height="166.957"
           id="rect7889" />
        <g
           id="g7891" />
        <g
           id="g7893" />
        <g
           id="g7895" />
        <g
           id="g7897" />
        <g
           id="g7899" />
        <g
           id="g7901" />
        <g
           id="g7903" />
        <g
           id="g7905" />
        <g
           id="g7907" />
        <g
           id="g7909" />
        <g
           id="g7911" />
        <g
           id="g7913" />
        <g
           id="g7915" />
        <g
           id="g7917" />
        <g
           id="g7919" />
      </g>
    </g>
    <g
       id="g1004"
       transform="matrix(1.4100404,0,0,1.4100404,-985.04684,990.69958)"
       inkscape:export-filename="C:\Users\Francesco\Documents\Programmazione\Sito casa\public\images\logo\1024.png"
       inkscape:export-xdpi="96"
       inkscape:export-ydpi="96">
      <g
         id="g948"
         transform="translate(6.4974957,-13.247642)">
        <rect
           x="10.199"
           y="166.175"
           style="fill:#f8db02;fill-opacity:1;stroke:#000000;stroke-width:19.0017;stroke-linecap:round;stroke-linejoin:round;stroke-miterlimit:4;stroke-dasharray:none;stroke-opacity:1"
           width="403.95001"
           height="313.931"
           id="rect942" />
        <polygon
           style="fill:#f07057;stroke:#000000;stroke-width:19.0017;stroke-linejoin:round;stroke-miterlimit:4;stroke-dasharray:none;stroke-opacity:1"
           points="82.91,31.894 10.199,166.175 414.153,166.175 343.749,31.894 "
           id="polygon944" />
        <rect
           x="156.772"
           y="318.521"
           style="fill:#84b3d2;stroke:#000000;stroke-width:19.0017;stroke-linejoin:round;stroke-miterlimit:4;stroke-dasharray:none;stroke-opacity:1"
           width="110.804"
           height="161.586"
           id="rect946" />
      </g>
      <g
         id="g1002"
         transform="matrix(0.63339109,0,0,0.63339109,240.3779,-48.213981)">
        <polygon
           style="fill:#bddbff"
           points="100.173,445.217 66.783,445.217 66.783,512 267.13,512 267.13,478.609 345.042,478.609 345.042,445.217 411.825,445.217 411.825,411.826 445.216,411.826 445.216,378.435 478.608,378.435 478.608,333.913 512,333.913 512,144.696 478.608,144.696 478.608,100.174 445.217,100.174 445.217,66.783 411.825,66.783 411.825,33.391 345.042,33.391 345.042,0 166.957,0 166.957,33.391 100.173,33.391 100.173,66.783 66.781,66.783 66.781,100.174 33.391,100.174 33.391,144.696 0,144.696 0,300.522 33.391,300.522 33.391,345.043 66.781,345.043 66.781,378.435 100.174,378.435 "
           id="polygon950" />
        <polygon
           points="100.173,345.043 66.781,345.043 66.781,300.522 33.391,300.522 33.391,345.043 66.781,345.043 66.781,378.435 100.173,378.435 "
           id="polygon952" />
        <polygon
           points="33.391,300.522 33.391,144.696 66.783,144.696 66.783,100.174 100.173,100.174 100.173,66.783 166.955,66.783 166.955,33.391 100.173,33.391 100.173,66.783 66.781,66.783 66.781,100.174 33.391,100.174 33.391,144.696 0,144.696 0,300.522 "
           id="polygon954" />
        <polygon
           points="411.826,66.783 411.826,33.391 345.043,33.391 345.043,0 166.955,0 166.955,33.391 345.042,33.391 345.042,66.783 411.825,66.783 411.825,100.174 445.216,100.174 445.216,66.783 "
           id="polygon956" />
        <polygon
           points="512,144.696 478.608,144.696 478.608,100.174 445.217,100.174 445.217,144.696 478.608,144.696 478.608,333.913 512,333.913 "
           id="polygon958" />
        <rect
           x="445.21701"
           y="333.91299"
           width="33.389999"
           height="44.521999"
           id="rect960" />
        <polygon
           points="345.042,478.609 345.042,445.217 411.825,445.217 411.825,411.826 345.042,411.826 345.042,445.217 267.13,445.217 267.13,478.609 100.173,478.609 100.173,445.217 66.781,445.217 66.781,512 267.13,512 267.13,478.609 "
           id="polygon962" />
        <polygon
           points="133.564,445.217 133.564,411.826 166.955,411.826 166.955,378.435 100.173,378.435 100.173,445.217 "
           id="polygon964" />
        <rect
           x="411.82599"
           y="378.435"
           width="33.390999"
           height="33.390999"
           id="rect966" />
        <rect
           x="233.739"
           y="100.174"
           width="44.521999"
           height="44.521999"
           id="rect968" />
        <rect
           x="233.739"
           y="178.08701"
           width="44.521999"
           height="166.957"
           id="rect970" />
        <g
           id="g972" />
        <g
           id="g974" />
        <g
           id="g976" />
        <g
           id="g978" />
        <g
           id="g980" />
        <g
           id="g982" />
        <g
           id="g984" />
        <g
           id="g986" />
        <g
           id="g988" />
        <g
           id="g990" />
        <g
           id="g992" />
        <g
           id="g994" />
        <g
           id="g996" />
        <g
           id="g998" />
        <g
           id="g1000" />
      </g>
    </g>
    <g
       id="g1263"
       style="stroke:none;stroke-opacity:1"
       transform="matrix(1.8634127,0,0,1.8634127,34.965415,34.967278)">
</g>
    <g
       id="g1265"
       style="stroke:none;stroke-opacity:1"
       transform="matrix(1.8634127,0,0,1.8634127,34.965415,34.967278)">
</g>
    <g
       id="g1267"
       style="stroke:none;stroke-opacity:1"
       transform="matrix(1.8634127,0,0,1.8634127,34.965415,34.967278)">
</g>
    <g
       id="g1269"
       style="stroke:none;stroke-opacity:1"
       transform="matrix(1.8634127,0,0,1.8634127,34.965415,34.967278)">
</g>
    <g
       id="g1271"
       style="stroke:none;stroke-opacity:1"
       transform="matrix(1.8634127,0,0,1.8634127,34.965415,34.967278)">
</g>
    <g
       id="g1273"
       style="stroke:none;stroke-opacity:1"
       transform="matrix(1.8634127,0,0,1.8634127,34.965415,34.967278)">
</g>
    <g
       id="g1275"
       style="stroke:none;stroke-opacity:1"
       transform="matrix(1.8634127,0,0,1.8634127,34.965415,34.967278)">
</g>
    <g
       id="g1277"
       style="stroke:none;stroke-opacity:1"
       transform="matrix(1.8634127,0,0,1.8634127,34.965415,34.967278)">
</g>
    <g
       id="g1279"
       style="stroke:none;stroke-opacity:1"
       transform="matrix(1.8634127,0,0,1.8634127,34.965415,34.967278)">
</g>
    <g
       id="g1281"
       style="stroke:none;stroke-opacity:1"
       transform="matrix(1.8634127,0,0,1.8634127,34.965415,34.967278)">
</g>
    <g
       id="g1283"
       style="stroke:none;stroke-opacity:1"
       transform="matrix(1.8634127,0,0,1.8634127,34.965415,34.967278)">
</g>
    <g
       id="g1285"
       style="stroke:none;stroke-opacity:1"
       transform="matrix(1.8634127,0,0,1.8634127,34.965415,34.967278)">
</g>
    <g
       id="g1287"
       style="stroke:none;stroke-opacity:1"
       transform="matrix(1.8634127,0,0,1.8634127,34.965415,34.967278)">
</g>
    <g
       id="g1289"
       style="stroke:none;stroke-opacity:1"
       transform="matrix(1.8634127,0,0,1.8634127,34.965415,34.967278)">
</g>
    <g
       id="g1291"
       style="stroke:none;stroke-opacity:1"
       transform="matrix(1.8634127,0,0,1.8634127,34.965415,34.967278)">
</g>
    <g
       id="g3607"
       transform="matrix(1.8634127,0,0,1.8634127,22.509059,-1165.1444)"
       style="stroke:none;stroke-opacity:1">
      <path
         style="fill:#ff911f;stroke:none;stroke-opacity:1"
         d="m 456.608,351.647 h -0.015 C 456.405,332.065 439.9,316.246 419.557,316.246 l 0.031,34.177 c 0,19.168 16.983,34.505 37.008,34.505 20.032,0 37.043,-15.38 37.043,-34.505 v -34.177 c -20.338,-10e-4 -36.841,15.818 -37.031,35.401 z"
         id="path3529" />
      <path
         style="fill:#ffae18;stroke:none;stroke-opacity:1"
         d="m 478.226,321.778 c -6.391,-13.079 -21.628,-26.495 -21.628,-26.495 0,0 -16.195,9.446 -21.628,26.495 l 21.624,29.868 z"
         id="path3531" />
      <path
         style="fill:#8c239b;stroke:none;stroke-opacity:1"
         d="m 364.843,274.039 h -0.014 c -0.188,-19.582 -16.693,-35.401 -37.036,-35.401 l 0.031,34.177 c 0,19.168 16.983,34.505 37.008,34.505 20.032,0 37.043,-15.38 37.043,-34.505 v -34.177 c -20.338,-0.001 -36.841,15.819 -37.032,35.401 z"
         id="path3533" />
      <path
         style="fill:#dd5ed7;stroke:none;stroke-opacity:1"
         d="m 386.462,244.171 c -6.391,-13.079 -21.628,-26.495 -21.628,-26.495 0,0 -16.195,9.446 -21.628,26.495 l 21.624,29.868 z"
         id="path3535" />
      <path
         style="fill:#0f8ee3;stroke:none;stroke-opacity:1"
         d="m 273.08,396.468 h -0.015 c -0.188,-19.582 -16.693,-35.401 -37.036,-35.401 l 0.031,34.177 c 0,19.168 16.983,34.505 37.008,34.505 20.032,0 37.043,-15.38 37.043,-34.505 v -34.177 c -20.337,0 -36.841,15.818 -37.031,35.401 z"
         id="path3537" />
      <path
         style="fill:#27b5f7;stroke:none;stroke-opacity:1"
         d="m 294.699,366.599 c -6.391,-13.079 -21.628,-26.495 -21.628,-26.495 0,0 -16.195,9.446 -21.628,26.495 l 21.624,29.868 z"
         id="path3539" />
      <g
         id="g3545"
         style="stroke:none;stroke-opacity:1">
	<path
   style="fill:#7dce09;stroke:none;stroke-opacity:1"
   d="m 148.295,501.551 c 9.94,-9.253 16.165,-22.443 16.165,-37.094 0,-27.989 -22.689,-50.678 -50.678,-50.678 -21.931,0 -40.606,13.934 -47.662,33.429 -5.725,-3.948 -12.66,-6.264 -20.139,-6.264 -19.621,0 -35.527,15.905 -35.527,35.527 0,9.79 3.96,18.654 10.365,25.08 z"
   id="path3541" />

	<path
   style="fill:#7dce09;stroke:none;stroke-opacity:1"
   d="m 493.385,501.551 c 5.095,-6.08 8.166,-13.913 8.166,-22.465 0,-19.333 -15.671,-35.004 -35.004,-35.004 -0.695,0 -1.383,0.026 -2.069,0.066 -7.829,-17.875 -25.667,-30.368 -46.431,-30.368 -22.423,0 -41.432,14.569 -48.11,34.753 -5.053,-2.831 -10.875,-4.451 -17.08,-4.451 -19.333,0 -35.004,15.671 -35.004,35.004 0,8.552 3.071,16.385 8.166,22.465 z"
   id="path3543" />

</g>
      <path
         style="fill:#ffae18;stroke:none;stroke-opacity:1"
         d="m 128.819,268.694 c 0,-10.738 8.569,-19.433 19.237,-19.731 -7.332,-7.759 -7.243,-19.962 0.35,-27.557 7.593,-7.591 19.796,-7.682 27.556,-0.35 0.298,-10.668 8.992,-19.237 19.731,-19.237 10.738,0 19.433,8.568 19.731,19.237 7.759,-7.332 19.962,-7.241 27.556,0.35 7.592,7.595 7.683,19.798 0.35,27.557 10.667,0.298 19.237,8.992 19.237,19.731 0,10.74 -8.569,19.434 -19.237,19.73 7.332,7.76 7.241,19.962 -0.35,27.557 -7.593,7.593 -19.797,7.683 -27.556,0.351 -0.298,10.667 -8.992,19.236 -19.731,19.236 -10.738,0 -19.433,-8.568 -19.731,-19.236 -7.76,7.332 -19.962,7.241 -27.556,-0.351 -7.593,-7.594 -7.683,-19.796 -0.35,-27.557 -10.668,-0.295 -19.237,-8.99 -19.237,-19.73 z"
         id="path3547" />
      <circle
         style="fill:#ff3131;stroke:none;stroke-opacity:1"
         cx="195.69"
         cy="268.82101"
         r="19.853001"
         id="circle3549" />
      <path
         style="fill:#ffae18;stroke:none;stroke-opacity:1"
         d="m 479.759,109.839 c 13.234,-10.12 21.777,-26.063 21.777,-44.01 0,-30.585 -24.794,-55.38 -55.38,-55.38 -27.391,0 -50.121,19.889 -54.574,46.01 0,0 26.716,2.741 46.389,36.618 29.601,1.486 41.788,16.762 41.788,16.762 z"
         id="path3551" />
      <g
         id="g3557"
         style="stroke:none;stroke-opacity:1">
	<path
   style="fill:#27b5f7;stroke:none;stroke-opacity:1"
   d="m 491.527,141.67 c 0,-26.939 -21.781,-48.853 -48.556,-48.853 -1.672,0 -3.34,0.093 -4.999,0.26 -8.42,-22.137 -29.63,-37.089 -53.674,-37.089 -24.046,0 -45.253,14.952 -53.673,37.089 -1.66,-0.167 -3.327,-0.26 -5.002,-0.26 -26.771,0 -48.552,21.915 -48.552,48.853 z"
   id="path3553" />

	<path
   style="fill:#27b5f7;stroke:none;stroke-opacity:1"
   d="m 149.95,66.182 c 0,-17.523 -14.168,-31.777 -31.584,-31.777 -1.088,0 -2.172,0.061 -3.252,0.169 -5.476,-14.399 -19.273,-24.125 -34.913,-24.125 -15.641,0 -29.436,9.726 -34.913,24.125 -1.079,-0.109 -2.164,-0.169 -3.254,-0.169 -17.414,0 -31.581,14.254 -31.581,31.777 0,0 139.497,0 139.497,0 z"
   id="path3555" />

</g>
      <path
         style="fill:#ce1128;stroke:none;stroke-opacity:1"
         d="M 55.369,365.436 H 55.354 C 55.166,345.854 38.661,330.035 18.318,330.035 l 0.031,34.177 c 0,19.168 16.983,34.505 37.008,34.505 20.032,0 37.043,-15.38 37.043,-34.505 v -34.177 c -20.339,0 -36.842,15.82 -37.031,35.401 z"
         id="path3559" />
      <path
         style="fill:#ff3131;stroke:none;stroke-opacity:1"
         d="M 76.988,335.568 C 70.597,322.489 55.36,309.073 55.36,309.073 c 0,0 -16.195,9.446 -21.628,26.495 l 21.624,29.868 z"
         id="path3561" />
      <path
         d="m 470.956,433.845 c -1.192,-2.06 -2.501,-4.029 -3.907,-5.915 v -33.666 c 21.175,-4.52 37.043,-22.455 37.043,-43.844 v -34.177 c 0,-5.771 -4.678,-10.449 -10.449,-10.449 -4.34,0 -8.545,0.59 -12.549,1.666 -7.463,-12.108 -17.602,-20.058 -18.089,-20.435 -3.769,-2.924 -9.039,-2.923 -12.808,0 -0.487,0.377 -10.627,8.327 -18.089,20.434 -4.003,-1.075 -8.207,-1.665 -12.547,-1.665 -2.773,0 -5.432,1.102 -7.392,3.064 -1.96,1.961 -3.059,4.622 -3.057,7.395 l 0.031,34.166 c 0,21.386 15.853,39.319 37.008,43.842 v 15.923 c -8.519,-4.415 -18.115,-6.856 -28.104,-6.856 -16.4,0 -31.604,6.497 -42.763,17.422 V 316.655 c 21.175,-4.519 37.043,-22.455 37.043,-43.844 v -34.177 c 0,-5.771 -4.678,-10.449 -10.449,-10.449 -4.341,0 -8.545,0.59 -12.548,1.666 -7.463,-12.108 -17.603,-20.058 -18.09,-20.435 -3.769,-2.924 -9.039,-2.923 -12.808,0 -0.487,0.377 -10.627,8.326 -18.088,20.434 -4.003,-1.075 -8.208,-1.666 -12.547,-1.666 -2.773,0 -5.432,1.102 -7.392,3.064 -1.96,1.961 -3.059,4.622 -3.057,7.395 l 0.031,34.167 c 0,21.386 15.852,39.319 37.008,43.842 v 117.026 c -0.51,-0.018 -1.018,-0.049 -1.529,-0.049 -25.063,0 -45.453,20.39 -45.453,45.453 0,10.654 3.767,21.015 10.606,29.177 1.985,2.37 4.918,3.738 8.009,3.738 h 167.365 c 3.091,0 6.024,-1.369 8.009,-3.738 C 508.233,500.097 512,489.736 512,479.082 512,455.51 493.958,436.068 470.956,433.845 Z M 456.599,309.647 c 1.928,2.1 4.027,4.664 5.919,7.546 -2.146,1.82 -4.133,3.813 -5.915,5.975 -1.784,-2.163 -3.772,-4.157 -5.919,-5.977 1.89,-2.883 3.989,-5.446 5.915,-7.544 z m -26.559,40.764 -0.02,-21.666 c 9.385,3.853 16.028,12.712 16.127,23.001 0.055,5.731 4.717,10.349 10.449,10.349 h 0.015 c 5.731,0 10.393,-4.616 10.449,-10.348 0.099,-10.293 6.746,-19.156 16.134,-23.007 v 21.68 c 0,13.039 -12.178,24.056 -26.594,24.056 -14.398,10e-4 -26.56,-11.016 -26.56,-24.065 z M 364.834,232.039 c 1.928,2.1 4.027,4.664 5.918,7.547 -2.145,1.819 -4.133,3.813 -5.915,5.974 -1.784,-2.163 -3.772,-4.157 -5.919,-5.977 1.892,-2.882 3.99,-5.445 5.916,-7.544 z m -26.558,40.765 -0.02,-21.666 c 9.385,3.853 16.028,12.712 16.127,23.001 0.055,5.731 4.717,10.349 10.449,10.349 h 0.014 c 5.731,0 10.393,-4.616 10.449,-10.348 0.1,-10.292 6.746,-19.156 16.135,-23.007 v 21.681 c 0,13.039 -12.178,24.056 -26.594,24.056 -14.398,-10e-4 -26.56,-11.017 -26.56,-24.066 z M 487.957,491.102 H 331.446 c -2.046,-3.648 -3.144,-7.79 -3.144,-12.016 0,-13.54 11.015,-24.555 24.555,-24.555 4.191,0 8.331,1.078 11.972,3.119 2.721,1.523 5.982,1.752 8.888,0.625 2.908,-1.13 5.159,-3.498 6.139,-6.459 5.46,-16.501 20.807,-27.587 38.19,-27.587 15.975,0 30.444,9.465 36.86,24.112 1.753,4.003 5.811,6.507 10.177,6.238 0.484,-0.028 0.971,-0.048 1.462,-0.048 13.54,0 24.555,11.015 24.555,24.555 0.002,4.226 -1.097,8.368 -3.143,12.016 z"
         id="path3563"
         style="opacity:1;stroke:none;stroke-width:0.999779;stroke-miterlimit:4;stroke-dasharray:none;stroke-opacity:1" />
      <path
         d="m 216.623,152.119 h 60.447 c 5.771,0 10.449,-4.678 10.449,-10.449 0,-21.176 17.092,-38.404 38.103,-38.404 1.258,0 2.588,0.07 3.954,0.208 4.7,0.472 9.134,-2.265 10.815,-6.682 6.906,-18.156 24.551,-30.354 43.908,-30.354 19.358,0 37.003,12.198 43.908,30.354 1.68,4.417 6.12,7.151 10.815,6.682 1.365,-0.138 2.694,-0.208 3.951,-0.208 17.419,0 32.147,11.841 36.674,27.955 h -124.27 c -5.771,0 -10.449,4.678 -10.449,10.449 0,5.771 4.678,10.449 10.449,10.449 h 136.151 c 5.771,0 10.449,-4.678 10.449,-10.449 0,-11.067 -3.032,-21.433 -8.305,-30.308 C 505.4,99.187 511.986,83.073 511.986,65.828 511.985,29.531 482.454,0 446.156,0 417.159,0 392.15,18.677 383.525,45.553 c -25.115,0.292 -48.128,14.749 -59.551,36.838 -28.25,0.784 -51.604,21.625 -56.436,48.83 h -50.916 c -5.771,0 -10.449,4.678 -10.449,10.449 0,5.771 4.679,10.449 10.45,10.449 z M 446.156,20.898 c 24.775,0 44.931,20.156 44.931,44.931 0,11.103 -4.006,21.52 -11.184,29.645 C 470.184,87.61 457.954,82.762 444.621,82.392 436.257,66.215 421.672,54.132 404.6,48.706 411.374,32.141 427.564,20.898 446.156,20.898 Z"
         id="path3565"
         style="stroke:none;stroke-opacity:1" />
      <path
         d="m 10.453,76.631 c 5.771,0 10.449,-4.678 10.449,-10.449 0,-11.76 9.48,-21.328 21.133,-21.328 0.694,0 1.437,0.04 2.208,0.117 4.699,0.479 9.132,-2.265 10.813,-6.682 3.956,-10.402 14.061,-17.39 25.145,-17.39 11.084,0 21.191,6.988 25.147,17.391 1.679,4.415 6.11,7.157 10.813,6.682 0.77,-0.077 1.512,-0.117 2.206,-0.117 7.895,0 14.793,4.391 18.42,10.879 H 61.388 c -5.771,0 -10.449,4.678 -10.449,10.449 0,5.771 4.678,10.449 10.449,10.449 h 88.562 c 5.771,0 10.449,-4.678 10.449,-10.449 0,-22.169 -17.09,-40.401 -38.731,-42.098 C 113.236,9.43 97.384,0 80.201,0 63.018,0 47.166,9.43 38.735,24.085 17.095,25.781 0.004,44.014 0.004,66.182 c 0,5.771 4.678,10.449 10.449,10.449 z"
         id="path3567"
         style="stroke:none;stroke-width:0.53665;stroke-miterlimit:4;stroke-dasharray:none;stroke-opacity:1" />
      <path
         d="m 323.343,131.221 c -5.771,0 -10.449,4.678 -10.449,10.449 0,5.771 4.678,10.449 10.449,10.449 h 0.163 c 5.771,0 10.449,-4.678 10.449,-10.449 0,-5.771 -4.678,-10.449 -10.449,-10.449 0,0 -0.163,0 -0.163,0 z"
         id="path3569"
         style="stroke:none;stroke-opacity:1" />
      <path
         d="m 183.186,152.119 h 0.163 c 5.771,0 10.449,-4.678 10.449,-10.449 0,-5.771 -4.678,-10.449 -10.449,-10.449 h -0.163 c -5.771,0 -10.449,4.678 -10.449,10.449 0,5.771 4.678,10.449 10.449,10.449 z"
         id="path3571"
         style="stroke:none;stroke-opacity:1" />
      <path
         d="m 225.993,268.82 c 0,-16.709 -13.593,-30.302 -30.301,-30.302 -16.709,0 -30.303,13.593 -30.303,30.302 0,16.709 13.594,30.302 30.303,30.302 16.708,0 30.301,-13.594 30.301,-30.302 z m -39.706,0 c 0,-5.185 4.219,-9.404 9.405,-9.404 5.185,0 9.403,4.219 9.403,9.404 0,5.185 -4.218,9.404 -9.403,9.404 -5.187,0 -9.405,-4.219 -9.405,-9.404 z"
         id="path3573"
         style="stroke:none;stroke-opacity:1" />
      <path
         d="m 302.378,472.244 c -4.08,-4.081 -10.697,-4.079 -14.777,0 l -4.082,4.082 v -37.14 c 21.175,-4.52 37.043,-22.455 37.043,-43.844 v -34.177 c 0,-5.771 -4.678,-10.449 -10.449,-10.449 -4.34,0 -8.545,0.59 -12.549,1.666 -7.463,-12.108 -17.602,-20.058 -18.089,-20.435 -3.769,-2.924 -9.039,-2.923 -12.808,0 -0.487,0.377 -10.628,8.327 -18.089,20.434 -4.003,-1.075 -8.207,-1.666 -12.547,-1.666 -2.773,0 -5.432,1.102 -7.392,3.064 -1.96,1.961 -3.059,4.622 -3.057,7.395 l 0.031,34.166 c 0,21.386 15.852,39.319 37.008,43.842 v 37.141 l -4.081,-4.081 c -4.08,-4.08 -10.697,-4.08 -14.778,0 -4.08,4.08 -4.08,10.697 0,14.778 l 4.081,4.081 H 206.14 V 344.173 c 6.532,-2.383 11.991,-6.936 15.498,-12.838 9.966,2.534 20.901,-0.138 28.729,-7.966 7.824,-7.827 10.496,-18.76 7.962,-28.725 8.842,-5.252 14.684,-14.874 14.684,-25.948 0,-11.073 -5.842,-20.695 -14.684,-25.948 2.534,-9.965 -0.138,-20.899 -7.964,-28.728 -7.827,-7.826 -18.76,-10.499 -28.727,-7.963 -5.253,-8.841 -14.874,-14.683 -25.947,-14.683 -11.073,0 -20.695,5.843 -25.948,14.684 -9.968,-2.535 -20.899,0.137 -28.728,7.963 -7.826,7.828 -10.499,18.761 -7.963,28.727 -8.841,5.253 -14.683,14.874 -14.683,25.948 0,11.075 5.841,20.696 14.683,25.948 -2.535,9.967 0.138,20.9 7.964,28.727 7.826,7.826 18.759,10.499 28.727,7.963 3.507,5.902 8.966,10.455 15.499,12.839 v 146.929 h -16.49 c 3.995,-8.24 6.154,-17.349 6.154,-26.645 0,-33.705 -27.421,-61.127 -61.127,-61.127 -18.986,0 -36.575,8.876 -47.974,23.266 v -18.542 c 21.175,-4.52 37.043,-22.455 37.043,-43.844 v -34.177 c 0,-5.771 -4.678,-10.449 -10.449,-10.449 -4.341,0 -8.545,0.59 -12.549,1.666 -7.463,-12.108 -17.602,-20.058 -18.089,-20.435 -3.769,-2.924 -9.039,-2.923 -12.808,0 -0.487,0.377 -10.627,8.327 -18.089,20.434 -4.003,-1.075 -8.207,-1.665 -12.547,-1.665 -2.773,0 -5.432,1.102 -7.392,3.064 -1.96,1.961 -3.059,4.622 -3.057,7.395 l 0.031,34.166 c 0,21.386 15.853,39.319 37.008,43.842 v 22.471 C 20.05,431.095 0.001,451.478 0.001,476.47 c 0,12.251 4.765,23.778 13.414,32.457 1.96,1.966 4.624,3.072 7.401,3.072 h 274.171 c 5.771,0 10.449,-4.678 10.449,-10.449 0,-4.766 -3.194,-8.779 -7.557,-10.034 l 4.496,-4.495 c 4.084,-4.081 4.084,-10.697 0.003,-14.777 z M 179.962,306.68 c -1.293,-0.536 -2.651,-0.797 -3.999,-0.797 -2.62,0 -5.2,0.986 -7.177,2.854 -3.704,3.5 -9.411,3.437 -12.991,-0.144 -3.581,-3.581 -3.645,-9.288 -0.145,-12.992 2.83,-2.995 3.635,-7.372 2.057,-11.177 -1.578,-3.806 -5.244,-6.329 -9.362,-6.444 -5.09,-0.141 -9.077,-4.22 -9.077,-9.285 0,-5.065 3.987,-9.144 9.078,-9.286 4.118,-0.115 7.785,-2.638 9.361,-6.444 1.576,-3.806 0.771,-8.184 -2.058,-11.177 -3.499,-3.703 -3.436,-9.409 0.144,-12.99 3.581,-3.582 9.289,-3.644 12.992,-0.144 2.994,2.83 7.371,3.634 11.177,2.057 3.806,-1.577 6.329,-5.243 6.444,-9.36 0.142,-5.092 4.221,-9.079 9.286,-9.079 5.065,0 9.143,3.987 9.286,9.079 0.115,4.118 2.638,7.784 6.445,9.361 3.804,1.577 8.183,0.771 11.177,-2.058 3.703,-3.5 9.409,-3.436 12.989,0.143 3.581,3.583 3.646,9.29 0.146,12.992 -2.83,2.995 -3.635,7.372 -2.058,11.177 1.578,3.805 5.244,6.33 9.361,6.444 5.092,0.142 9.079,4.221 9.079,9.286 0,5.066 -3.987,9.144 -9.078,9.285 -4.118,0.114 -7.784,2.637 -9.362,6.444 -1.578,3.806 -0.772,8.184 2.057,11.177 3.499,3.704 3.436,9.411 -0.144,12.992 -3.581,3.581 -9.287,3.644 -12.991,0.145 -2.995,-2.83 -7.371,-3.634 -11.177,-2.058 -3.806,1.578 -6.33,5.243 -6.444,9.361 -0.142,5.091 -4.221,9.078 -9.286,9.078 -5.065,0 -9.144,-3.987 -9.286,-9.078 -0.115,-4.118 -2.638,-7.785 -6.444,-9.362 z m 93.108,47.888 c 1.928,2.1 4.027,4.664 5.918,7.546 -2.145,1.819 -4.133,3.813 -5.915,5.974 -1.784,-2.162 -3.772,-4.157 -5.919,-5.977 1.891,-2.881 3.99,-5.444 5.916,-7.543 z m -26.559,40.764 -0.02,-21.666 c 9.385,3.853 16.028,12.712 16.127,23.001 0.055,5.731 4.717,10.349 10.449,10.349 h 0.015 c 5.731,0 10.393,-4.616 10.449,-10.348 0.099,-10.293 6.746,-19.156 16.134,-23.007 v 21.68 c 0,13.039 -12.178,24.056 -26.594,24.056 -14.398,0 -26.56,-11.016 -26.56,-24.065 z M 55.358,323.438 c 1.928,2.1 4.027,4.664 5.919,7.546 -2.146,1.82 -4.133,3.813 -5.915,5.975 -1.784,-2.163 -3.772,-4.157 -5.919,-5.977 1.89,-2.883 3.989,-5.446 5.915,-7.544 z m -26.559,40.763 -0.02,-21.666 c 9.385,3.853 16.028,12.712 16.127,23.001 0.055,5.731 4.717,10.349 10.449,10.349 h 0.015 c 5.731,0 10.393,-4.616 10.449,-10.348 0.099,-10.293 6.746,-19.156 16.134,-23.007 v 21.68 c 0,13.039 -12.178,24.056 -26.594,24.056 -14.397,0 -26.56,-11.015 -26.56,-24.065 z m -3.192,126.901 c -3.056,-4.236 -4.704,-9.308 -4.704,-14.63 0,-13.827 11.249,-25.078 25.078,-25.078 5.104,0 10.017,1.528 14.209,4.417 2.667,1.838 6.033,2.337 9.119,1.349 3.085,-0.987 5.536,-3.35 6.638,-6.395 5.744,-15.873 20.95,-26.537 37.836,-26.537 22.182,0 40.229,18.046 40.229,40.229 0,9.97 -3.558,19.294 -10.096,26.645 z"
         id="path3575"
         style="stroke:none;stroke-opacity:1" />
      <g
         id="g3577"
         style="stroke:none;stroke-opacity:1">
</g>
      <g
         id="g3579"
         style="stroke:none;stroke-opacity:1">
</g>
      <g
         id="g3581"
         style="stroke:none;stroke-opacity:1">
</g>
      <g
         id="g3583"
         style="stroke:none;stroke-opacity:1">
</g>
      <g
         id="g3585"
         style="stroke:none;stroke-opacity:1">
</g>
      <g
         id="g3587"
         style="stroke:none;stroke-opacity:1">
</g>
      <g
         id="g3589"
         style="stroke:none;stroke-opacity:1">
</g>
      <g
         id="g3591"
         style="stroke:none;stroke-opacity:1">
</g>
      <g
         id="g3593"
         style="stroke:none;stroke-opacity:1">
</g>
      <g
         id="g3595"
         style="stroke:none;stroke-opacity:1">
</g>
      <g
         id="g3597"
         style="stroke:none;stroke-opacity:1">
</g>
      <g
         id="g3599"
         style="stroke:none;stroke-opacity:1">
</g>
      <g
         id="g3601"
         style="stroke:none;stroke-opacity:1">
</g>
      <g
         id="g3603"
         style="stroke:none;stroke-opacity:1">
</g>
      <g
         id="g3605"
         style="stroke:none;stroke-opacity:1">
</g>
    </g>
    <g
       inkscape:groupmode="layer"
       id="layer2"
       inkscape:label="Contorni">
      <g
         id="g19844"
         transform="translate(-165.56074,-968.10942)">
        <g
           id="g5013"
           transform="matrix(3.2486707,0,0,3.2486707,1788.9943,60.315884)">
		<path
   d="m 279.865,105.49 c 0,17.21 -6.14,33.52 -17.37,46.39 -1.43,29.15 -22.79,53.29 -51.84,58.04 -0.54,0.08 -1.08,0.13 -1.62,0.13 h -21.24 c -2.76,18.7 -4,46.16 4.9,73.33 0.47,1.17 0.73,2.45 0.73,3.79 0,5.57 -4.51,10.08 -10.08,10.08 h -0.02 -69.16 c -3.24,0 -6.28,-1.56 -8.18,-4.19 -1.89,-2.62 -2.4,-6 -1.38,-9.08 9.15,-27.46 7.91,-55.13 5.13,-73.93 h -21.27 c -0.54,0 -1.09,-0.05 -1.62,-0.13 -29.05,-4.74 -50.41,-28.89 -51.84,-58.04 -11.23,-12.87 -17.37,-29.18 -17.37,-46.39 0,-38.95 31.67,-70.63 70.59,-70.63 1.61,0 3.23,0.05 4.85,0.17 10.27,-21.1 31.71,-34.78 55.67,-34.78 23.97,0 45.41,13.68 55.68,34.78 1.61,-0.12 3.23,-0.17 4.84,-0.17 38.93,0 70.6,31.68 70.6,70.63 z m -34.59,35.33 c 9.3,-9.49 14.43,-22.04 14.43,-35.33 0,-27.83 -22.63,-50.47 -50.44,-50.47 -3.11,0 -6.27,0.29 -9.39,0.88 -4.97,0.93 -9.85,-1.96 -11.43,-6.76 -5.66,-17.18 -21.61,-28.73 -39.7,-28.73 -18.08,0 -34.03,11.55 -39.69,28.73 -1.58,4.8 -6.47,7.69 -11.44,6.76 -3.12,-0.59 -6.28,-0.88 -9.39,-0.88 -27.81,0 -50.43,22.64 -50.43,50.47 0,13.29 5.12,25.84 14.43,35.33 1.88,1.92 2.91,4.51 2.88,7.2 0,0.2 -0.01,0.39 -0.02,0.59 v 0.17 c 0,20.31 14.35,37.49 34.24,41.11 h 16.26 c -0.57,-2.1 -0.96,-3.28 -0.98,-3.35 -1.02,-3.07 -0.51,-6.45 1.38,-9.08 1.9,-2.63 4.94,-4.19 8.18,-4.19 h 69.16 c 3.24,0 6.29,1.56 8.18,4.19 1.9,2.63 2.41,6.01 1.39,9.08 -0.03,0.07 -0.41,1.25 -0.98,3.35 h 16.26 c 19.89,-3.62 34.24,-20.8 34.24,-41.14 l -0.01,-0.14 c 0,-0.2 -0.01,-0.39 -0.01,-0.59 -0.04,-2.69 1,-5.28 2.88,-7.2 z m -75,52.61 h -43.05 c 3.8,17.35 8.3,49.48 0.26,83.66 -6.24089,0 28.35333,0 42.53,0 -8.04,-34.18 -3.54,-66.31 0.26,-83.66 z"
   id="path5002"
   sodipodi:nodetypes="sccsccsscscccsccsscscsscssccsccsscccsccccssccccccccccccc"
   style="stroke-width:0.307818;stroke-miterlimit:100;stroke-dasharray:none" />
<path
   style="fill:#7ac1a3"
   d="m 259.705,105.49 c 0,13.29 -5.13,25.84 -14.43,35.33 -1.88,1.92 -2.92,4.51 -2.88,7.2 0,0.2 0.01,0.39 0.01,0.59 l 0.01,0.14 c 0,20.34 -14.35,37.52 -34.24,41.14 h -16.26 c 0.57,-2.1 0.95,-3.28 0.98,-3.35 1.02,-3.07 0.51,-6.45 -1.39,-9.08 -1.89,-2.63 -4.94,-4.19 -8.18,-4.19 h -69.16 c -3.24,0 -6.28,1.56 -8.18,4.19 -1.89,2.63 -2.4,6.01 -1.38,9.08 0.02,0.07 0.41,1.25 0.98,3.35 h -16.26 c -19.89,-3.62 -34.24,-20.8 -34.24,-41.11 v -0.17 c 0.01,-0.2 0.02,-0.39 0.02,-0.59 0.03,-2.69 -1,-5.28 -2.88,-7.2 -9.31,-9.49 -14.43,-22.04 -14.43,-35.33 0,-27.83 22.62,-50.47 50.43,-50.47 3.11,0 6.27,0.29 9.39,0.88 4.97,0.93 9.86,-1.96 11.44,-6.76 5.66,-17.18 21.61,-28.73 39.69,-28.73 18.09,0 34.04,11.55 39.7,28.73 1.58,4.8 6.46,7.69 11.43,6.76 3.12,-0.59 6.28,-0.88 9.39,-0.88 27.81,0 50.44,22.64 50.44,50.47 z"
   id="path5004" />
<path
   style="fill:#c7a488"
   d="m 127.225,193.43 h 43.05 c -3.8,17.35 -8.3,49.48 -0.26,83.66 h -42.53 c 8.04,-34.18 3.54,-66.31 -0.26,-83.66 z"
   id="path5006" />
<g
   id="g5010">
			</g>

	</g>
        <g
           id="g5021"
           transform="matrix(3.2486707,0,0,3.2486707,1788.9943,60.315884)">
		<g
   id="g5019">
			<path
   d="m 220.666,122.726 c -9.043,0 -17.138,-5.392 -20.622,-13.736 -2.299,-5.507 -2.316,-11.579 -0.049,-17.099 2.268,-5.52 6.55,-9.826 12.057,-12.125 l 1.224,-0.511 c 5.507,-2.303 11.582,-2.321 17.103,-0.052 5.518,2.268 9.823,6.55 12.123,12.056 2.3,5.508 2.317,11.58 0.051,17.1 -2.268,5.52 -6.55,9.826 -12.057,12.126 l -1.229,0.512 c -2.745,1.147 -5.64,1.729 -8.601,1.729 z m 1.223,-31.204 c -1.09,0 -2.179,0.216 -3.215,0.649 l -1.227,0.512 c -2.058,0.859 -3.656,2.467 -4.503,4.527 -0.846,2.061 -0.84,4.328 0.02,6.384 1.301,3.117 4.324,5.131 7.702,5.131 1.099,0 2.177,-0.218 3.206,-0.648 l 1.23,-0.513 c 2.055,-0.858 3.652,-2.466 4.499,-4.525 0.847,-2.062 0.84,-4.328 -0.02,-6.385 -0.858,-2.057 -2.466,-3.655 -4.526,-4.502 -1.021,-0.42 -2.094,-0.63 -3.166,-0.63 z"
   id="path5015" />

			<path
   style="fill:#d5797c"
   d="m 223.872,108.077 1.23,-0.513 c 2.055,-0.858 3.652,-2.466 4.499,-4.525 0.847,-2.062 0.84,-4.328 -0.02,-6.385 -0.858,-2.057 -2.466,-3.655 -4.526,-4.502 -1.021,-0.42 -2.095,-0.63 -3.167,-0.63 -1.09,0 -2.179,0.216 -3.215,0.649 l -1.227,0.512 c -2.058,0.859 -3.656,2.467 -4.503,4.527 -0.846,2.061 -0.84,4.328 0.02,6.384 1.301,3.117 4.324,5.131 7.702,5.131 1.1,0.001 2.178,-0.217 3.207,-0.648 z"
   id="path5017" />

		</g>

	</g>
        <g
           id="g5029"
           transform="matrix(3.2486707,0,0,3.2486707,1788.9943,60.315884)">
		<g
   id="g5027">
			<path
   d="m 132.248,93.226 c -9.095,0 -17.207,-5.436 -20.667,-13.849 -4.686,-11.393 0.771,-24.473 12.164,-29.158 l 1.225,-0.504 c 5.518,-2.27 11.591,-2.255 17.099,0.042 5.506,2.298 9.789,6.603 12.059,12.121 4.686,11.394 -0.771,24.475 -12.164,29.159 l -1.221,0.503 c -2.72,1.119 -5.577,1.686 -8.495,1.686 z m 1.22,-31.196 c -1.074,0 -2.148,0.211 -3.173,0.632 l -1.227,0.505 c -4.252,1.748 -6.289,6.632 -4.54,10.886 1.293,3.143 4.323,5.173 7.72,5.173 1.082,0 2.146,-0.213 3.165,-0.632 l 1.223,-0.503 c 4.256,-1.75 6.293,-6.634 4.544,-10.888 -0.848,-2.061 -2.447,-3.668 -4.503,-4.525 -1.033,-0.432 -2.121,-0.648 -3.209,-0.648 z"
   id="path5023" />

			<path
   style="fill:#d5797c"
   d="m 141.18,67.203 c -0.848,-2.061 -2.447,-3.668 -4.503,-4.525 -1.033,-0.432 -2.121,-0.647 -3.209,-0.647 -1.074,0 -2.148,0.211 -3.173,0.632 l -1.227,0.505 c -4.252,1.748 -6.289,6.632 -4.54,10.886 1.293,3.143 4.323,5.173 7.72,5.173 1.082,0 2.146,-0.213 3.165,-0.632 l 1.223,-0.503 c 4.256,-1.751 6.293,-6.635 4.544,-10.889 z"
   id="path5025" />

		</g>

	</g>
        <g
           id="g5037"
           transform="matrix(3.2486707,0,0,3.2486707,1788.9943,60.315884)">
		<g
   id="g5035">
			<path
   d="m 171.107,155.75 c -9.084,0 -17.192,-5.426 -20.656,-13.822 -2.277,-5.514 -2.27,-11.586 0.021,-17.097 2.29,-5.512 6.59,-9.8 12.106,-12.076 l 1.217,-0.503 c 5.518,-2.278 11.589,-2.272 17.101,0.02 5.51,2.29 9.798,6.589 12.075,12.105 2.277,5.516 2.27,11.588 -0.021,17.099 -2.29,5.512 -6.59,9.8 -12.106,12.076 l -1.222,0.504 c -2.719,1.123 -5.585,1.694 -8.515,1.694 z m 1.215,-31.194 c -1.078,0 -2.156,0.212 -3.183,0.636 l -1.219,0.504 c -2.062,0.851 -3.667,2.451 -4.521,4.509 -0.854,2.057 -0.857,4.323 -0.008,6.382 1.295,3.138 4.323,5.164 7.716,5.164 1.085,0 2.153,-0.214 3.173,-0.636 l 1.226,-0.505 c 2.057,-0.849 3.662,-2.449 4.517,-4.507 0.854,-2.057 0.857,-4.324 0.008,-6.383 -0.851,-2.061 -2.452,-3.666 -4.509,-4.521 -1.031,-0.428 -2.115,-0.643 -3.2,-0.643 z"
   id="path5031" />

			<path
   style="fill:#d5797c"
   d="m 174.28,141.114 1.226,-0.505 c 2.057,-0.849 3.662,-2.449 4.517,-4.507 0.854,-2.057 0.857,-4.324 0.008,-6.383 -0.851,-2.061 -2.452,-3.666 -4.509,-4.521 -1.03,-0.428 -2.114,-0.643 -3.199,-0.643 -1.078,0 -2.156,0.212 -3.183,0.636 l -1.219,0.504 c -2.062,0.851 -3.667,2.451 -4.521,4.509 -0.854,2.057 -0.857,4.323 -0.008,6.382 1.295,3.138 4.323,5.164 7.716,5.164 1.084,0 2.153,-0.214 3.172,-0.636 z"
   id="path5033" />

		</g>

	</g>
        <g
           id="g5045"
           transform="matrix(3.2486707,0,0,3.2486707,1788.9943,60.315884)">
		<g
   id="g5043">
			<path
   d="m 76.964,110.863 c -9.126,0 -17.249,-5.461 -20.695,-13.912 C 51.621,85.543 57.12,72.48 68.524,67.83 l 1.229,-0.5 c 11.404,-4.649 24.467,0.852 29.118,12.257 4.647,11.408 -0.852,24.471 -12.256,29.121 l -1.224,0.499 c -2.701,1.1 -5.535,1.656 -8.427,1.656 z m 1.207,-31.184 c -1.047,0 -2.11,0.198 -3.138,0.617 l -1.227,0.499 c -4.255,1.735 -6.309,6.613 -4.573,10.873 1.287,3.155 4.321,5.195 7.73,5.195 1.074,0 2.133,-0.209 3.146,-0.621 l 1.219,-0.497 c 4.26,-1.737 6.313,-6.615 4.578,-10.875 -1.317,-3.229 -4.443,-5.191 -7.735,-5.191 z"
   id="path5039" />

			<path
   style="fill:#d5797c"
   d="m 80.109,96.242 1.219,-0.497 c 4.26,-1.737 6.313,-6.615 4.578,-10.875 -1.317,-3.229 -4.443,-5.191 -7.735,-5.191 -1.047,0 -2.11,0.198 -3.138,0.617 l -1.227,0.499 c -4.255,1.735 -6.309,6.613 -4.573,10.873 1.287,3.155 4.321,5.195 7.73,5.195 1.075,0 2.134,-0.209 3.146,-0.621 z"
   id="path5041" />

		</g>

	</g>
      </g>
      <g
         id="g5049"
         transform="matrix(3.2486707,0,0,3.2486707,587.97736,-225.90777)">
</g>
      <g
         id="g5051"
         transform="matrix(3.2486707,0,0,3.2486707,587.97736,-225.90777)">
</g>
      <g
         id="g5053"
         transform="matrix(3.2486707,0,0,3.2486707,587.97736,-225.90777)">
</g>
      <g
         id="g5055"
         transform="matrix(3.2486707,0,0,3.2486707,587.97736,-225.90777)">
</g>
      <g
         id="g5057"
         transform="matrix(3.2486707,0,0,3.2486707,587.97736,-225.90777)">
</g>
      <g
         id="g5059"
         transform="matrix(3.2486707,0,0,3.2486707,587.97736,-225.90777)">
</g>
      <g
         id="g5061"
         transform="matrix(3.2486707,0,0,3.2486707,587.97736,-225.90777)">
</g>
      <g
         id="g5063"
         transform="matrix(3.2486707,0,0,3.2486707,587.97736,-225.90777)">
</g>
      <g
         id="g5065"
         transform="matrix(3.2486707,0,0,3.2486707,587.97736,-225.90777)">
</g>
      <g
         id="g5067"
         transform="matrix(3.2486707,0,0,3.2486707,587.97736,-225.90777)">
</g>
      <g
         id="g5069"
         transform="matrix(3.2486707,0,0,3.2486707,587.97736,-225.90777)">
</g>
      <g
         id="g5071"
         transform="matrix(3.2486707,0,0,3.2486707,587.97736,-225.90777)">
</g>
      <g
         id="g5073"
         transform="matrix(3.2486707,0,0,3.2486707,587.97736,-225.90777)">
</g>
      <g
         id="g5075"
         transform="matrix(3.2486707,0,0,3.2486707,587.97736,-225.90777)">
</g>
      <g
         id="g5077"
         transform="matrix(3.2486707,0,0,3.2486707,587.97736,-225.90777)">
</g>
      <g
         id="g20007"
         transform="matrix(0.97617227,0,0,0.97617227,2809.6477,154.33738)">
        <g
           id="g5291"
           transform="matrix(1.3853851,0,0,1.3853851,359.90382,303.2313)"
           style="display:inline">
          <rect
             x="10.199"
             y="166.175"
             style="fill:#f8db02;fill-opacity:1;stroke:#000000;stroke-width:19.0017;stroke-linecap:round;stroke-linejoin:round;stroke-miterlimit:4;stroke-dasharray:none;stroke-opacity:1"
             width="403.95001"
             height="313.931"
             id="rect5285" />
          <polygon
             style="fill:#f07057;stroke:#000000;stroke-width:19.0017;stroke-linejoin:round;stroke-miterlimit:4;stroke-dasharray:none;stroke-opacity:1"
             points="10.199,166.175 414.153,166.175 343.749,31.894 82.91,31.894 "
             id="polygon5287" />
          <rect
             x="156.772"
             y="318.521"
             style="fill:#84b3d2;stroke:#000000;stroke-width:19.0017;stroke-linejoin:round;stroke-miterlimit:4;stroke-dasharray:none;stroke-opacity:1"
             width="110.804"
             height="161.586"
             id="rect5289" />
        </g>
        <g
           id="g5578"
           transform="matrix(1.8945876,0,0,1.8945876,1103.3544,1759.4252)">
          <g
             id="g9290"
             transform="translate(-688.07937,-845.70695)">
            <path
               style="fill:#7dce09;fill-opacity:1"
               d="m 108.755,234.352 c 1.049,0.65 2.116,1.288 3.183,1.927 5.318,3.18 10.818,6.468 14.788,11.439 3.994,5.002 5.992,11.115 7.924,17.028 1.901,5.818 3.697,11.314 6.878,13.854 3.149,2.515 8.887,3.048 14.962,3.612 5.881,0.547 11.953,1.111 17.5,3.545 14.621,-18.78 36.933,-29.797 61.008,-29.797 24.077,0 46.387,11.015 61.008,29.797 5.547,-2.434 11.619,-2.998 17.501,-3.544 6.075,-0.565 11.813,-1.099 14.961,-3.613 3.181,-2.54 4.977,-8.035 6.878,-13.854 1.932,-5.912 3.93,-12.025 7.923,-17.027 3.969,-4.971 9.467,-8.258 14.784,-11.437 5.274,-3.153 10.256,-6.132 12.044,-9.838 1.727,-3.58 0.971,-9.267 0.171,-15.287 -0.825,-6.204 -1.678,-12.62 -0.242,-18.937 1.386,-6.097 4.871,-11.384 8.241,-16.496 3.417,-5.183 6.644,-10.078 6.644,-14.338 0,-4.259 -3.227,-9.154 -6.644,-14.338 -3.37,-5.112 -6.855,-10.399 -8.241,-16.496 -1.436,-6.315 -0.583,-12.731 0.242,-18.936 0.8,-6.02 1.556,-11.707 -0.171,-15.287 -1.788,-3.706 -6.77,-6.685 -12.044,-9.838 -5.317,-3.179 -10.815,-6.466 -14.784,-11.437 -3.994,-5.001 -5.992,-11.115 -7.923,-17.027 -1.901,-5.818 -3.697,-11.314 -6.878,-13.854 -3.15,-2.516 -8.888,-3.049 -14.962,-3.614 -6.209,-0.577 -12.63,-1.174 -18.423,-3.969 -5.679,-2.739 -10.081,-7.34 -14.338,-11.788 -4.271,-4.462 -8.305,-8.678 -12.378,-9.604 -3.8,-0.863 -9.131,1.125 -14.776,3.229 -5.914,2.205 -12.029,4.485 -18.593,4.485 -6.564,0 -12.679,-2.28 -18.593,-4.485 -5.646,-2.104 -10.98,-4.091 -14.777,-3.229 -4.072,0.926 -8.106,5.141 -12.376,9.604 -4.257,4.448 -8.659,9.048 -14.338,11.788 -5.794,2.795 -12.216,3.393 -18.426,3.97 -1.205,0.112 -2.409,0.225 -3.602,0.354 -3.971,0.436 -7.556,-2.333 -8.199,-6.233 -2.92,0.738 -5.6,1.843 -7.839,3.631 -2.282,1.822 -3.973,4.246 -5.355,6.984 3.666,1.485 5.576,5.589 4.277,9.375 -0.379,1.105 -0.745,2.225 -1.111,3.343 -1.935,5.917 -3.936,12.036 -7.932,17.042 -3.969,4.97 -9.467,8.257 -14.784,11.436 -5.275,3.154 -10.257,6.133 -12.045,9.838 -1.728,3.581 -0.971,9.268 -0.171,15.288 0.825,6.204 1.677,12.62 0.242,18.936 -1.386,6.097 -4.871,11.384 -8.241,16.496 -3.417,5.184 -6.644,10.079 -6.644,14.338 0,4.26 3.227,9.155 6.644,14.339 3.37,5.112 6.854,10.399 8.24,16.495 1.436,6.316 0.583,12.733 -0.241,18.938 -0.151,1.135 -0.302,2.268 -0.436,3.395 -0.454,3.812 -3.692,6.614 -7.438,6.614 -0.162,0 -0.326,-0.019 -0.49,-0.029 0.052,3.058 0.521,5.957 1.779,8.564 1.257,2.605 3.206,4.78 5.527,6.719 2.267,-3.235 6.687,-4.179 10.086,-2.071 z M 308.227,133.484 c 15.386,0 27.904,12.518 27.904,27.903 0,15.387 -12.518,27.904 -27.904,27.904 -15.386,0 -27.903,-12.518 -27.903,-27.904 0,-15.385 12.518,-27.903 27.903,-27.903 z M 234.998,67.229 c 15.386,0 27.904,12.518 27.904,27.903 0,15.385 -12.518,27.903 -27.904,27.903 -15.386,0 -27.904,-12.518 -27.904,-27.903 0,-15.385 12.518,-27.903 27.904,-27.903 z m -73.23,66.255 c 15.386,0 27.903,12.518 27.903,27.903 0,15.387 -12.518,27.904 -27.903,27.904 -15.386,0 -27.904,-12.518 -27.904,-27.904 0.001,-15.385 12.518,-27.903 27.904,-27.903 z"
               id="path5497" />
            <path
               style="fill:#d35b38"
               d="m 308.227,174.292 c 7.115,0 12.904,-5.789 12.904,-12.904 0,-7.115 -5.789,-12.903 -12.904,-12.903 -7.115,0 -12.903,5.788 -12.903,12.903 0,7.115 5.789,12.904 12.903,12.904 z"
               id="path5499" />
            <path
               style="fill:#000000"
               d="m 308.227,189.292 c 15.386,0 27.904,-12.518 27.904,-27.904 0,-15.386 -12.518,-27.903 -27.904,-27.903 -15.386,0 -27.903,12.518 -27.903,27.903 0,15.386 12.518,27.904 27.903,27.904 z m 0,-40.808 c 7.115,0 12.904,5.788 12.904,12.903 0,7.115 -5.789,12.904 -12.904,12.904 -7.115,0 -12.903,-5.789 -12.903,-12.904 0,-7.115 5.789,-12.903 12.903,-12.903 z"
               id="path5501" />
            <path
               style="fill:#d35b38"
               d="m 234.998,108.036 c 7.115,0 12.904,-5.788 12.904,-12.903 0,-7.115 -5.789,-12.903 -12.904,-12.903 -7.115,0 -12.904,5.788 -12.904,12.903 0,7.115 5.789,12.903 12.904,12.903 z"
               id="path5503" />
            <path
               style="fill:#000000"
               d="m 234.998,123.036 c 15.386,0 27.904,-12.518 27.904,-27.903 0,-15.385 -12.518,-27.903 -27.904,-27.903 -15.386,0 -27.904,12.518 -27.904,27.903 0,15.385 12.518,27.903 27.904,27.903 z m 0,-40.807 c 7.115,0 12.904,5.788 12.904,12.903 0,7.115 -5.789,12.903 -12.904,12.903 -7.115,0 -12.904,-5.788 -12.904,-12.903 0,-7.115 5.789,-12.903 12.904,-12.903 z"
               id="path5505" />
            <path
               style="fill:#d35b38"
               d="m 161.768,174.292 c 7.115,0 12.903,-5.789 12.903,-12.904 0,-7.115 -5.789,-12.903 -12.903,-12.903 -7.115,0 -12.904,5.788 -12.904,12.903 0,7.115 5.789,12.904 12.904,12.904 z"
               id="path5507" />
            <path
               style="fill:#000000"
               d="m 161.768,189.292 c 15.386,0 27.903,-12.518 27.903,-27.904 0,-15.386 -12.518,-27.903 -27.903,-27.903 -15.386,0 -27.904,12.518 -27.904,27.903 0.001,15.386 12.518,27.904 27.904,27.904 z m 0,-40.808 c 7.115,0 12.903,5.788 12.903,12.903 0,7.115 -5.789,12.904 -12.903,12.904 -7.115,0 -12.904,-5.789 -12.904,-12.904 0,-7.115 5.789,-12.903 12.904,-12.903 z"
               id="path5509" />
            <path
               style="fill:#000000"
               d="m 390.792,183.981 c 4.274,-6.485 9.12,-13.835 9.12,-22.594 0,-8.758 -4.845,-16.108 -9.12,-22.593 -2.754,-4.179 -5.356,-8.125 -6.138,-11.565 -0.838,-3.688 -0.196,-8.519 0.484,-13.634 1.007,-7.574 2.148,-16.158 -1.53,-23.782 -3.741,-7.756 -11.241,-12.239 -17.857,-16.195 -4.363,-2.608 -8.484,-5.072 -10.759,-7.921 -2.3,-2.881 -3.8,-7.469 -5.387,-12.327 -2.386,-7.302 -5.09,-15.578 -11.776,-20.916 -6.654,-5.314 -15.303,-6.118 -22.934,-6.828 -5.11,-0.475 -9.936,-0.923 -13.293,-2.543 -3.236,-1.562 -6.531,-5.004 -10.019,-8.649 C 286.229,8.84 280.161,2.5 271.692,0.574 c -8.166,-1.854 -16.229,1.15 -23.341,3.802 -4.883,1.82 -9.495,3.54 -13.353,3.54 -3.858,0 -8.47,-1.72 -13.353,-3.54 -7.113,-2.651 -15.177,-5.655 -23.342,-3.802 -8.468,1.926 -14.536,8.266 -19.889,13.859 -3.488,3.646 -6.783,7.089 -10.019,8.649 -3.358,1.62 -8.187,2.069 -13.298,2.545 -1.281,0.119 -2.562,0.238 -3.83,0.376 -4.118,0.447 -7.094,4.147 -6.647,8.266 0.015,0.14 0.043,0.276 0.066,0.413 0.643,3.9 4.228,6.669 8.199,6.233 1.193,-0.129 2.397,-0.241 3.602,-0.354 6.21,-0.577 12.631,-1.175 18.426,-3.97 5.679,-2.74 10.081,-7.34 14.338,-11.788 4.271,-4.463 8.304,-8.678 12.376,-9.604 3.797,-0.861 9.131,1.125 14.777,3.229 5.914,2.205 12.029,4.485 18.593,4.485 6.564,0 12.679,-2.28 18.593,-4.485 5.645,-2.104 10.977,-4.093 14.776,-3.229 4.074,0.926 8.107,5.142 12.378,9.604 4.257,4.448 8.659,9.049 14.338,11.788 5.793,2.795 12.214,3.392 18.423,3.969 6.075,0.565 11.813,1.099 14.962,3.614 3.181,2.539 4.977,8.035 6.878,13.854 1.932,5.912 3.93,12.026 7.923,17.027 3.969,4.971 9.467,8.258 14.784,11.437 5.274,3.153 10.256,6.132 12.044,9.838 1.727,3.58 0.971,9.268 0.171,15.287 -0.825,6.204 -1.678,12.62 -0.242,18.936 1.386,6.097 4.871,11.384 8.241,16.496 3.417,5.184 6.644,10.079 6.644,14.338 0,4.26 -3.227,9.155 -6.644,14.338 -3.37,5.112 -6.855,10.399 -8.241,16.496 -1.436,6.316 -0.583,12.732 0.242,18.937 0.8,6.021 1.556,11.707 -0.171,15.287 -1.788,3.706 -6.77,6.685 -12.044,9.838 -5.317,3.179 -10.815,6.466 -14.784,11.437 -3.994,5.002 -5.992,11.115 -7.923,17.027 -1.902,5.819 -3.698,11.314 -6.878,13.854 -3.149,2.515 -8.887,3.048 -14.961,3.613 -5.882,0.546 -11.954,1.11 -17.501,3.544 -14.621,-18.782 -36.931,-29.797 -61.008,-29.797 -24.075,0 -46.387,11.017 -61.008,29.797 -5.548,-2.434 -11.619,-2.998 -17.5,-3.545 -6.075,-0.564 -11.813,-1.098 -14.962,-3.612 -3.181,-2.54 -4.977,-8.036 -6.878,-13.854 -1.932,-5.913 -3.93,-12.026 -7.924,-17.028 -3.97,-4.972 -9.469,-8.26 -14.788,-11.439 -1.067,-0.639 -2.134,-1.276 -3.183,-1.927 -3.399,-2.109 -7.818,-1.165 -10.085,2.07 -0.081,0.116 -0.167,0.228 -0.242,0.35 -2.183,3.52 -1.1,8.144 2.42,10.326 1.118,0.693 2.256,1.374 3.393,2.055 4.365,2.609 8.488,5.074 10.764,7.925 2.3,2.881 3.8,7.47 5.387,12.328 2.386,7.302 5.09,15.577 11.776,20.917 6.654,5.313 15.303,6.117 22.934,6.826 5.11,0.476 9.936,0.924 13.291,2.542 0.954,0.461 1.958,1.108 3.068,1.979 1.664,1.306 3.802,1.849 5.887,1.493 2.085,-0.354 3.923,-1.572 5.063,-3.354 1.888,-2.954 3.997,-5.709 6.292,-8.259 l 38.797,35.411 v 86.366 c 0.25595,7.84777 0.13291,14.78577 7.499,14.841 7.06049,0 7.42611,-8.66136 7.499,-14.841 0,-86.366 0,0 0,-86.366 l 38.797,-35.411 c 2.294,2.549 4.403,5.304 6.291,8.259 1.139,1.782 2.978,3 5.063,3.354 0.418,0.071 0.839,0.106 1.257,0.106 1.667,0 3.3,-0.556 4.63,-1.6 1.11,-0.871 2.113,-1.518 3.066,-1.978 3.357,-1.62 8.184,-2.068 13.293,-2.543 7.63,-0.71 16.278,-1.514 22.933,-6.827 6.686,-5.339 9.39,-13.615 11.776,-20.917 1.587,-4.857 3.087,-9.446 5.387,-12.327 2.275,-2.849 6.396,-5.313 10.759,-7.921 6.616,-3.956 14.116,-8.439 17.857,-16.195 3.678,-7.624 2.537,-16.208 1.53,-23.781 -0.68,-5.115 -1.322,-9.947 -0.484,-13.636 0.784,-3.44 3.386,-7.386 6.14,-11.564 z m -190.713,97.647 c 8.122,-5.499 17.491,-9.026 27.419,-10.214 v 35.24 z m 42.419,-10.215 c 9.928,1.189 19.297,4.716 27.419,10.214 l -27.419,25.026 z"
               id="path5511"
               sodipodi:nodetypes="cscssccccccccccsscccscsccccsccscccccccssscscssscssscsccsccssscsscscsccccscccccccccsssssccscccscccccccccc" />
            <path
               style="fill:#000000"
               d="m 99.291,214.555 c 0.134,-1.127 0.285,-2.26 0.436,-3.395 0.825,-6.205 1.677,-12.622 0.241,-18.938 -1.386,-6.096 -4.87,-11.383 -8.24,-16.495 -3.417,-5.184 -6.644,-10.079 -6.644,-14.339 0,-4.259 3.227,-9.154 6.644,-14.338 3.37,-5.112 6.855,-10.399 8.241,-16.496 1.436,-6.315 0.583,-12.731 -0.242,-18.936 -0.8,-6.021 -1.557,-11.707 0.171,-15.288 1.788,-3.705 6.77,-6.684 12.045,-9.838 5.316,-3.179 10.814,-6.466 14.784,-11.436 3.997,-5.006 5.997,-11.125 7.932,-17.042 0.366,-1.118 0.732,-2.237 1.111,-3.343 1.3,-3.786 -0.611,-7.89 -4.277,-9.375 -0.127,-0.052 -0.252,-0.108 -0.383,-0.153 -3.914,-1.346 -8.184,0.741 -9.528,4.659 -0.403,1.174 -0.792,2.362 -1.18,3.55 -1.591,4.864 -3.093,9.458 -5.397,12.345 -2.275,2.848 -6.396,5.313 -10.759,7.921 -6.617,3.956 -14.116,8.439 -17.857,16.194 -3.678,7.624 -2.537,16.209 -1.53,23.782 0.68,5.115 1.322,9.947 0.484,13.635 -0.782,3.44 -3.383,7.387 -6.138,11.565 -4.274,6.484 -9.12,13.835 -9.12,22.593 0,8.759 4.845,16.109 9.12,22.595 2.754,4.178 5.355,8.124 6.137,11.564 0.839,3.688 0.196,8.521 -0.484,13.637 -0.16,1.203 -0.319,2.404 -0.461,3.598 -0.49,4.113 2.448,7.845 6.561,8.334 0.136,0.016 0.27,0.016 0.406,0.024 0.163,0.011 0.328,0.029 0.49,0.029 3.746,0.001 6.984,-2.802 7.437,-6.613 z"
               id="path5513" />
          </g>
          <g
             id="g5517">
</g>
          <g
             id="g5519">
</g>
          <g
             id="g5521">
</g>
          <g
             id="g5523">
</g>
          <g
             id="g5525">
</g>
          <g
             id="g5527">
</g>
          <g
             id="g5529">
</g>
          <g
             id="g5531">
</g>
          <g
             id="g5533">
</g>
          <g
             id="g5535">
</g>
          <g
             id="g5537">
</g>
          <g
             id="g5539">
</g>
          <g
             id="g5541">
</g>
          <g
             id="g5543">
</g>
          <g
             id="g5545">
</g>
        </g>
      </g>
    </g>
  </g>
</svg>
